<svg viewBox="0 0 100 100" preserveAspectRatio="xMidYMid meet" xmlns="http://www.w3.org/2000/svg" xmlns:xlink="http://www.w3.org/1999/xlink" width="200" height="200" fill="none" stroke="#000"><rect x="0" y="0" width="100" height="100" stroke="none" fill="#fff"></rect><circle cx="50" cy="50" r="5.657" stroke-width="1" fill="none" stroke="#000"></circle><path stroke-width="0.8" fill="none" stroke="#000" d="M 62.728 50 L 62.728 50 L 62.75 50.638 L 62.736 51.278 L 62.684 51.917 L 62.59 52.552 L 62.455 53.18 L 62.278 53.798 L 62.059 54.402 L 61.802 54.99 L 61.51 55.56 L 61.186 56.111 L 60.834 56.642 L 60.458 57.155 L 60.063 57.65 L 59.65 58.128 L 59.222 58.591 L 58.779 59.039 L 58.322 59.474 L 57.851 59.893 L 57.363 60.296 L 56.858 60.68 L 56.334 61.042 L 55.791 61.379 L 55.229 61.685 L 54.649 61.957 L 54.051 62.192 L 53.439 62.387 L 52.815 62.539 L 52.182 62.65 L 51.544 62.719 L 50.904 62.748 L 50.265 62.741 L 49.629 62.7 L 48.998 62.63 L 48.372 62.533 L 47.751 62.414 L 47.137 62.273 L 46.527 62.113 L 45.923 61.934 L 45.324 61.734 L 44.732 61.511 L 44.147 61.265 L 43.572 60.991 L 43.01 60.687 L 42.465 60.351 L 41.94 59.983 L 41.44 59.581 L 40.967 59.146 L 40.524 58.68 L 40.114 58.186 L 39.737 57.667 L 39.393 57.126 L 39.082 56.568 L 38.801 55.997 L 38.547 55.414 L 38.319 54.823 L 38.114 54.226 L 37.929 53.623 L 37.764 53.015 L 37.619 52.402 L 37.494 51.783 L 37.392 51.158 L 37.314 50.528 L 37.266 49.893 L 37.25 49.254 L 37.27 48.615 L 37.329 47.976 L 37.429 47.342 L 37.572 46.715 L 37.756 46.099 L 37.981 45.498 L 38.244 44.913 L 38.543 44.346 L 38.872 43.799 L 39.228 43.27 L 39.607 42.761 L 40.005 42.269 L 40.421 41.793 L 40.852 41.333 L 41.297 40.886 L 41.756 40.455 L 42.23 40.038 L 42.721 39.638 L 43.229 39.257 L 43.756 38.899 L 44.302 38.568 L 44.867 38.267 L 45.451 38.001 L 46.051 37.773 L 46.666 37.585 L 47.291 37.439 L 47.925 37.336 L 48.564 37.273 L 49.204 37.25 L 49.842 37.264 L 50.478 37.31 L 51.108 37.385 L 51.733 37.485 L 52.352 37.608 L 52.966 37.752 L 53.575 37.915 L 54.178 38.098 L 54.776 38.302 L 55.367 38.528 L 55.95 38.78 L 56.523 39.058 L 57.082 39.367 L 57.625 39.708 L 58.146 40.082 L 58.642 40.49 L 59.11 40.93 L 59.547 41.401 L 59.952 41.9 L 60.323 42.423 L 60.661 42.966 L 60.967 43.527 L 61.244 44.101 L 61.493 44.685 L 61.717 45.277 L 61.919 45.875 L 62.1 46.479 L 62.261 47.088 L 62.403 47.702 L 62.525 48.322 L 62.623 48.948 L 62.696 49.579 Z"></path><path stroke-width="0.746" fill="none" stroke="#000" d="M 70.528 50 L 70.528 50 L 70.706 51.036 L 70.814 52.088 L 70.833 53.149 L 70.75 54.206 L 70.557 55.249 L 70.254 56.265 L 69.844 57.243 L 69.337 58.176 L 68.75 59.057 L 68.101 59.888 L 67.408 60.673 L 66.69 61.419 L 65.964 62.136 L 65.241 62.837 L 64.526 63.533 L 63.823 64.233 L 63.126 64.942 L 62.429 65.662 L 61.72 66.389 L 60.987 67.112 L 60.22 67.817 L 59.409 68.487 L 58.549 69.102 L 57.637 69.644 L 56.677 70.096 L 55.676 70.445 L 54.642 70.683 L 53.589 70.811 L 52.529 70.833 L 51.472 70.761 L 50.429 70.61 L 49.404 70.399 L 48.401 70.149 L 47.417 69.878 L 46.449 69.602 L 45.49 69.332 L 44.532 69.073 L 43.569 68.825 L 42.596 68.581 L 41.611 68.329 L 40.619 68.055 L 39.625 67.74 L 38.64 67.369 L 37.679 66.928 L 36.756 66.404 L 35.888 65.794 L 35.09 65.096 L 34.371 64.316 L 33.739 63.465 L 33.194 62.554 L 32.733 61.601 L 32.346 60.621 L 32.019 59.628 L 31.736 58.634 L 31.48 57.647 L 31.235 56.671 L 30.989 55.706 L 30.734 54.747 L 30.466 53.789 L 30.191 52.824 L 29.917 51.845 L 29.66 50.846 L 29.438 49.827 L 29.27 48.788 L 29.177 47.734 L 29.174 46.673 L 29.275 45.617 L 29.486 44.578 L 29.808 43.567 L 30.235 42.596 L 30.756 41.672 L 31.355 40.799 L 32.013 39.977 L 32.711 39.199 L 33.431 38.459 L 34.158 37.745 L 34.88 37.046 L 35.593 36.35 L 36.295 35.649 L 36.991 34.937 L 37.689 34.216 L 38.401 33.489 L 39.139 32.768 L 39.913 32.068 L 40.732 31.406 L 41.601 30.801 L 42.521 30.273 L 43.488 29.838 L 44.496 29.508 L 45.534 29.287 L 46.589 29.178 L 47.649 29.173 L 48.704 29.26 L 49.745 29.422 L 50.766 29.641 L 51.766 29.896 L 52.746 30.169 L 53.713 30.444 L 54.671 30.713 L 55.63 30.969 L 56.594 31.216 L 57.569 31.46 L 58.555 31.715 L 59.548 31.995 L 60.542 32.318 L 61.524 32.7 L 62.48 33.155 L 63.394 33.692 L 64.251 34.317 L 65.037 35.029 L 65.742 35.822 L 66.359 36.685 L 66.889 37.603 L 67.337 38.562 L 67.713 39.546 L 68.031 40.54 L 68.309 41.533 L 68.562 42.518 L 68.806 43.492 L 69.053 44.455 L 69.311 45.414 L 69.58 46.373 L 69.856 47.34 L 70.128 48.322 L 70.38 49.323 Z"></path><path stroke-width="0.692" fill="none" stroke="#000" d="M 75.091 50 L 75.091 50 L 75.411 51.272 L 75.635 52.572 L 75.732 53.889 L 75.679 55.205 L 75.462 56.502 L 75.078 57.758 L 74.536 58.956 L 73.851 60.084 L 73.052 61.135 L 72.167 62.11 L 71.231 63.017 L 70.274 63.87 L 69.323 64.689 L 68.397 65.495 L 67.507 66.309 L 66.655 67.148 L 65.832 68.022 L 65.025 68.934 L 64.214 69.876 L 63.377 70.833 L 62.495 71.782 L 61.55 72.692 L 60.531 73.531 L 59.434 74.267 L 58.264 74.871 L 57.03 75.323 L 55.748 75.609 L 54.438 75.729 L 53.119 75.692 L 51.81 75.518 L 50.525 75.234 L 49.273 74.873 L 48.058 74.469 L 46.875 74.055 L 45.714 73.658 L 44.565 73.297 L 43.412 72.981 L 42.242 72.708 L 41.048 72.466 L 39.824 72.234 L 38.576 71.987 L 37.313 71.693 L 36.053 71.325 L 34.819 70.856 L 33.637 70.268 L 32.534 69.549 L 31.532 68.698 L 30.65 67.725 L 29.898 66.645 L 29.278 65.48 L 28.781 64.256 L 28.39 63.001 L 28.081 61.736 L 27.825 60.483 L 27.592 59.253 L 27.355 58.051 L 27.091 56.876 L 26.785 55.72 L 26.435 54.571 L 26.045 53.415 L 25.634 52.238 L 25.224 51.031 L 24.85 49.789 L 24.544 48.511 L 24.339 47.207 L 24.266 45.889 L 24.346 44.575 L 24.591 43.284 L 25.002 42.036 L 25.57 40.849 L 26.276 39.734 L 27.092 38.696 L 27.988 37.733 L 28.93 36.837 L 29.887 35.991 L 30.835 35.175 L 31.755 34.369 L 32.639 33.552 L 33.486 32.708 L 34.304 31.827 L 35.111 30.91 L 35.925 29.964 L 36.768 29.006 L 37.66 28.061 L 38.616 27.161 L 39.648 26.337 L 40.757 25.622 L 41.939 25.042 L 43.183 24.617 L 44.471 24.359 L 45.784 24.267 L 47.103 24.328 L 48.408 24.523 L 49.688 24.822 L 50.933 25.193 L 52.143 25.6 L 53.322 26.013 L 54.479 26.405 L 55.629 26.759 L 56.784 27.068 L 57.957 27.335 L 59.156 27.573 L 60.384 27.806 L 61.636 28.059 L 62.9 28.362 L 64.157 28.746 L 65.384 29.234 L 66.555 29.844 L 67.643 30.585 L 68.625 31.457 L 69.486 32.45 L 70.215 33.546 L 70.814 34.723 L 71.292 35.953 L 71.667 37.212 L 71.965 38.475 L 72.215 39.726 L 72.447 40.951 L 72.687 42.148 L 72.958 43.319 L 73.27 44.473 L 73.628 45.623 L 74.023 46.781 L 74.436 47.963 L 74.842 49.175 Z"></path><path stroke-width="0.638" fill="none" stroke="#000" d="M 78.329 50 L 78.329 50 L 78.772 51.44 L 79.099 52.92 L 79.267 54.423 L 79.246 55.928 L 79.016 57.409 L 78.573 58.839 L 77.927 60.194 L 77.102 61.458 L 76.133 62.624 L 75.062 63.691 L 73.933 64.673 L 72.788 65.59 L 71.663 66.469 L 70.585 67.339 L 69.567 68.229 L 68.611 69.162 L 67.705 70.154 L 66.83 71.208 L 65.958 72.316 L 65.061 73.456 L 64.109 74.596 L 63.079 75.697 L 61.955 76.714 L 60.732 77.604 L 59.413 78.328 L 58.011 78.857 L 56.549 79.176 L 55.051 79.283 L 53.543 79.19 L 52.051 78.925 L 50.593 78.524 L 49.181 78.034 L 47.817 77.5 L 46.496 76.966 L 45.205 76.47 L 43.925 76.038 L 42.638 75.68 L 41.324 75.396 L 39.971 75.168 L 38.573 74.967 L 37.135 74.759 L 35.671 74.501 L 34.203 74.153 L 32.763 73.68 L 31.386 73.056 L 30.105 72.267 L 28.954 71.309 L 27.955 70.193 L 27.124 68.942 L 26.459 67.585 L 25.951 66.157 L 25.576 64.694 L 25.299 63.226 L 25.082 61.779 L 24.883 60.371 L 24.665 59.007 L 24.397 57.685 L 24.058 56.392 L 23.643 55.112 L 23.161 53.826 L 22.634 52.514 L 22.096 51.161 L 21.591 49.761 L 21.164 48.314 L 20.861 46.829 L 20.722 45.323 L 20.778 43.82 L 21.044 42.346 L 21.522 40.928 L 22.2 39.587 L 23.052 38.339 L 24.041 37.19 L 25.125 36.138 L 26.26 35.169 L 27.403 34.26 L 28.522 33.385 L 29.59 32.514 L 30.598 31.618 L 31.545 30.675 L 32.444 29.673 L 33.316 28.609 L 34.19 27.494 L 35.095 26.351 L 36.058 25.215 L 37.103 24.125 L 38.244 23.126 L 39.484 22.262 L 40.818 21.569 L 42.231 21.074 L 43.701 20.791 L 45.203 20.719 L 46.709 20.844 L 48.197 21.134 L 49.648 21.553 L 51.052 22.054 L 52.407 22.591 L 53.722 23.121 L 55.01 23.607 L 56.29 24.028 L 57.581 24.372 L 58.901 24.646 L 60.261 24.867 L 61.666 25.066 L 63.11 25.28 L 64.576 25.551 L 66.042 25.917 L 67.474 26.414 L 68.838 27.065 L 70.098 27.883 L 71.225 28.868 L 72.196 30.008 L 73 31.28 L 73.636 32.651 L 74.12 34.087 L 74.477 35.554 L 74.74 37.02 L 74.952 38.46 L 75.151 39.861 L 75.376 41.218 L 75.655 42.534 L 76.006 43.823 L 76.433 45.103 L 76.925 46.393 L 77.457 47.711 L 77.992 49.071 Z"></path><path stroke-width="0.585" fill="none" stroke="#000" d="M 80.84 50 L 80.84 50 L 81.392 51.571 L 81.81 53.192 L 82.043 54.843 L 82.053 56.497 L 81.815 58.124 L 81.324 59.69 L 80.593 61.167 L 79.65 62.536 L 78.54 63.786 L 77.312 64.921 L 76.022 65.954 L 74.722 66.913 L 73.455 67.831 L 72.253 68.744 L 71.134 69.688 L 70.097 70.693 L 69.131 71.777 L 68.209 72.946 L 67.298 74.189 L 66.361 75.48 L 65.362 76.78 L 64.272 78.04 L 63.07 79.206 L 61.75 80.224 L 60.316 81.048 L 58.784 81.641 L 57.179 81.985 L 55.532 82.076 L 53.876 81.932 L 52.24 81.585 L 50.646 81.082 L 49.11 80.478 L 47.632 79.83 L 46.207 79.194 L 44.817 78.614 L 43.439 78.122 L 42.049 77.732 L 40.625 77.443 L 39.148 77.232 L 37.613 77.066 L 36.024 76.899 L 34.397 76.679 L 32.761 76.358 L 31.154 75.892 L 29.617 75.247 L 28.194 74.405 L 26.923 73.364 L 25.834 72.136 L 24.943 70.748 L 24.251 69.235 L 23.742 67.642 L 23.389 66.009 L 23.149 64.377 L 22.973 62.776 L 22.811 61.227 L 22.616 59.736 L 22.348 58.3 L 21.985 56.903 L 21.517 55.525 L 20.957 54.14 L 20.33 52.725 L 19.681 51.262 L 19.061 49.74 L 18.527 48.16 L 18.137 46.532 L 17.939 44.878 L 17.969 43.226 L 18.25 41.608 L 18.783 40.055 L 19.552 38.595 L 20.526 37.246 L 21.66 36.015 L 22.902 34.899 L 24.197 33.88 L 25.494 32.93 L 26.752 32.016 L 27.941 31.1 L 29.046 30.148 L 30.069 29.131 L 31.026 28.032 L 31.944 26.849 L 32.857 25.596 L 33.802 24.301 L 34.815 23.004 L 35.922 21.756 L 37.143 20.611 L 38.483 19.623 L 39.935 18.836 L 41.481 18.283 L 43.096 17.983 L 44.746 17.932 L 46.401 18.113 L 48.032 18.49 L 49.616 19.014 L 51.143 19.63 L 52.611 20.279 L 54.029 20.909 L 55.415 21.476 L 56.793 21.951 L 58.187 22.323 L 59.62 22.597 L 61.106 22.798 L 62.651 22.961 L 64.248 23.133 L 65.879 23.366 L 67.512 23.709 L 69.111 24.204 L 70.631 24.88 L 72.031 25.756 L 73.273 26.83 L 74.33 28.087 L 75.187 29.499 L 75.847 31.028 L 76.327 32.631 L 76.658 34.266 L 76.884 35.895 L 77.053 37.488 L 77.218 39.028 L 77.423 40.509 L 77.706 41.937 L 78.087 43.329 L 78.571 44.707 L 79.145 46.095 L 79.779 47.517 L 80.427 48.99 Z"></path><path stroke-width="0.531" fill="none" stroke="#000" d="M 82.891 50 L 82.891 50 L 83.541 51.678 L 84.041 53.415 L 84.333 55.189 L 84.372 56.968 L 84.129 58.715 L 83.598 60.393 L 82.794 61.971 L 81.75 63.424 L 80.517 64.741 L 79.155 65.927 L 77.726 66.999 L 76.292 67.988 L 74.904 68.932 L 73.598 69.876 L 72.393 70.862 L 71.292 71.924 L 70.279 73.084 L 69.322 74.349 L 68.383 75.707 L 67.418 77.127 L 66.385 78.565 L 65.25 79.962 L 63.988 81.257 L 62.591 82.386 L 61.063 83.295 L 59.423 83.943 L 57.7 84.306 L 55.93 84.382 L 54.15 84.191 L 52.395 83.77 L 50.69 83.175 L 49.051 82.47 L 47.482 81.722 L 45.973 80.994 L 44.504 80.34 L 43.048 79.797 L 41.576 79.382 L 40.062 79.091 L 38.484 78.899 L 36.835 78.767 L 35.119 78.64 L 33.355 78.46 L 31.577 78.168 L 29.828 77.712 L 28.158 77.055 L 26.615 76.173 L 25.244 75.064 L 24.081 73.742 L 23.143 72.238 L 22.431 70.595 L 21.928 68.86 L 21.6 67.085 L 21.397 65.315 L 21.263 63.585 L 21.137 61.918 L 20.965 60.323 L 20.701 58.794 L 20.318 57.314 L 19.806 55.857 L 19.177 54.394 L 18.463 52.897 L 17.714 51.344 L 16.992 49.722 L 16.363 48.033 L 15.894 46.288 L 15.641 44.511 L 15.649 42.735 L 15.94 40.997 L 16.519 39.334 L 17.366 37.776 L 18.446 36.345 L 19.705 35.05 L 21.083 33.885 L 22.516 32.83 L 23.946 31.852 L 25.322 30.91 L 26.612 29.962 L 27.799 28.966 L 28.883 27.889 L 29.885 26.711 L 30.836 25.429 L 31.776 24.058 L 32.75 22.631 L 33.798 21.196 L 34.953 19.811 L 36.237 18.54 L 37.657 17.444 L 39.205 16.577 L 40.862 15.976 L 42.595 15.661 L 44.369 15.632 L 46.147 15.865 L 47.896 16.319 L 49.59 16.937 L 51.217 17.655 L 52.775 18.404 L 54.276 19.122 L 55.741 19.76 L 57.197 20.282 L 58.675 20.675 L 60.199 20.948 L 61.788 21.126 L 63.45 21.253 L 65.175 21.385 L 66.944 21.58 L 68.72 21.896 L 70.459 22.384 L 72.112 23.078 L 73.629 23.998 L 74.966 25.144 L 76.093 26.499 L 76.993 28.029 L 77.668 29.692 L 78.138 31.436 L 78.442 33.214 L 78.629 34.979 L 78.757 36.7 L 78.887 38.355 L 79.072 39.939 L 79.354 41.458 L 79.759 42.932 L 80.293 44.388 L 80.939 45.855 L 81.662 47.36 L 82.411 48.924 Z"></path><path stroke-width="0.477" fill="none" stroke="#000" d="M 84.626 50 L 84.626 50 L 85.363 51.77 L 85.939 53.606 L 86.285 55.484 L 86.351 57.369 L 86.105 59.219 L 85.54 60.994 L 84.671 62.656 L 83.538 64.18 L 82.197 65.553 L 80.715 66.78 L 79.164 67.881 L 77.612 68.891 L 76.118 69.855 L 74.721 70.822 L 73.444 71.841 L 72.289 72.95 L 71.237 74.175 L 70.254 75.523 L 69.294 76.981 L 68.309 78.515 L 67.251 80.074 L 66.08 81.593 L 64.769 83.001 L 63.307 84.229 L 61.7 85.213 L 59.969 85.908 L 58.145 86.288 L 56.269 86.349 L 54.384 86.114 L 52.526 85.626 L 50.727 84.948 L 49.002 84.151 L 47.356 83.312 L 45.777 82.502 L 44.243 81.783 L 42.722 81.195 L 41.182 80.757 L 39.592 80.466 L 37.928 80.295 L 36.181 80.195 L 34.356 80.108 L 32.474 79.966 L 30.573 79.703 L 28.701 79.261 L 26.914 78.595 L 25.267 77.682 L 23.811 76.515 L 22.584 75.113 L 21.607 73.51 L 20.882 71.752 L 20.388 69.895 L 20.085 67.997 L 19.919 66.106 L 19.825 64.265 L 19.735 62.497 L 19.586 60.813 L 19.328 59.206 L 18.928 57.656 L 18.376 56.134 L 17.686 54.606 L 16.894 53.041 L 16.056 51.413 L 15.242 49.708 L 14.527 47.926 L 13.985 46.08 L 13.683 44.198 L 13.668 42.317 L 13.968 40.476 L 14.586 38.718 L 15.503 37.078 L 16.675 35.579 L 18.045 34.231 L 19.543 33.027 L 21.099 31.944 L 22.644 30.945 L 24.125 29.984 L 25.502 29.011 L 26.758 27.98 L 27.894 26.853 L 28.932 25.607 L 29.908 24.239 L 30.868 22.765 L 31.862 21.223 L 32.937 19.666 L 34.13 18.16 L 35.466 16.778 L 36.953 15.587 L 38.583 14.649 L 40.333 14.005 L 42.168 13.68 L 44.048 13.671 L 45.931 13.952 L 47.781 14.476 L 49.569 15.18 L 51.28 15.99 L 52.914 16.828 L 54.483 17.626 L 56.013 18.326 L 57.535 18.89 L 59.081 19.301 L 60.683 19.57 L 62.36 19.726 L 64.121 19.818 L 65.957 19.91 L 67.845 20.068 L 69.745 20.357 L 71.607 20.835 L 73.374 21.541 L 74.992 22.497 L 76.412 23.705 L 77.598 25.143 L 78.532 26.777 L 79.216 28.555 L 79.675 30.422 L 79.951 32.323 L 80.1 34.208 L 80.189 36.038 L 80.285 37.792 L 80.449 39.462 L 80.729 41.058 L 81.154 42.601 L 81.731 44.121 L 82.441 45.654 L 83.245 47.228 L 84.084 48.868 Z"></path><path stroke-width="0.423" fill="none" stroke="#000" d="M 86.129 50 L 86.129 50 L 86.946 51.849 L 87.591 53.772 L 87.987 55.741 L 88.079 57.719 L 87.831 59.66 L 87.235 61.518 L 86.309 63.254 L 85.096 64.838 L 83.657 66.258 L 82.068 67.519 L 80.408 68.643 L 78.751 69.669 L 77.161 70.648 L 75.684 71.633 L 74.344 72.679 L 73.142 73.828 L 72.058 75.11 L 71.054 76.531 L 70.079 78.078 L 69.079 79.714 L 68.001 81.382 L 66.801 83.01 L 65.449 84.521 L 63.932 85.836 L 62.257 86.888 L 60.445 87.625 L 58.533 88.018 L 56.565 88.065 L 54.587 87.79 L 52.641 87.24 L 50.759 86.485 L 48.96 85.604 L 47.247 84.682 L 45.609 83.799 L 44.019 83.02 L 42.443 82.391 L 40.845 81.935 L 39.189 81.645 L 37.45 81.493 L 35.618 81.425 L 33.697 81.376 L 31.711 81.272 L 29.701 81.037 L 27.72 80.609 L 25.829 79.939 L 24.09 78.999 L 22.559 77.783 L 21.277 76.31 L 20.268 74.619 L 19.533 72.76 L 19.048 70.795 L 18.772 68.787 L 18.641 66.791 L 18.586 64.85 L 18.529 62.995 L 18.403 61.234 L 18.152 59.559 L 17.738 57.95 L 17.151 56.372 L 16.406 54.789 L 15.543 53.165 L 14.624 51.472 L 13.725 49.695 L 12.931 47.832 L 12.323 45.9 L 11.975 43.926 L 11.938 41.951 L 12.245 40.021 L 12.899 38.181 L 13.877 36.469 L 15.132 34.911 L 16.602 33.519 L 18.208 32.283 L 19.873 31.179 L 21.523 30.164 L 23.096 29.188 L 24.551 28.196 L 25.867 27.136 L 27.047 25.966 L 28.115 24.661 L 29.111 23.217 L 30.086 21.652 L 31.095 20.006 L 32.191 18.34 L 33.415 16.726 L 34.795 15.243 L 36.339 13.967 L 38.039 12.965 L 39.87 12.284 L 41.795 11.95 L 43.768 11.96 L 45.743 12.285 L 47.681 12.875 L 49.55 13.657 L 51.334 14.55 L 53.033 15.471 L 54.661 16.341 L 56.246 17.097 L 57.823 17.698 L 59.429 18.125 L 61.097 18.389 L 62.851 18.523 L 64.699 18.582 L 66.633 18.635 L 68.627 18.757 L 70.636 19.02 L 72.606 19.485 L 74.476 20.2 L 76.183 21.187 L 77.675 22.447 L 78.912 23.96 L 79.874 25.684 L 80.565 27.565 L 81.011 29.541 L 81.259 31.551 L 81.371 33.541 L 81.422 35.468 L 81.485 37.308 L 81.629 39.054 L 81.906 40.715 L 82.349 42.317 L 82.964 43.893 L 83.732 45.481 L 84.609 47.114 L 85.531 48.82 Z"></path><path stroke-width="0.369" fill="none" stroke="#000" d="M 87.454 50 L 87.454 50 L 88.346 51.919 L 89.054 53.919 L 89.498 55.969 L 89.613 58.03 L 89.364 60.051 L 88.741 61.984 L 87.763 63.785 L 86.477 65.422 L 84.95 66.883 L 83.263 68.172 L 81.503 69.315 L 79.751 70.353 L 78.075 71.343 L 76.526 72.343 L 75.13 73.411 L 73.887 74.595 L 72.775 75.926 L 71.754 77.413 L 70.768 79.041 L 69.756 80.769 L 68.663 82.535 L 67.439 84.263 L 66.051 85.866 L 64.487 87.262 L 62.751 88.375 L 60.869 89.15 L 58.878 89.555 L 56.828 89.588 L 54.767 89.275 L 52.742 88.668 L 50.787 87.842 L 48.923 86.884 L 47.152 85.886 L 45.461 84.934 L 43.823 84.101 L 42.199 83.436 L 40.55 82.963 L 38.837 82.676 L 37.032 82.542 L 35.124 82.505 L 33.117 82.492 L 31.037 82.423 L 28.929 82.217 L 26.85 81.804 L 24.866 81.132 L 23.045 80.168 L 21.447 78.909 L 20.116 77.374 L 19.079 75.603 L 18.336 73.653 L 17.863 71.591 L 17.612 69.484 L 17.516 67.393 L 17.497 65.365 L 17.474 63.431 L 17.37 61.601 L 17.125 59.867 L 16.699 58.205 L 16.081 56.579 L 15.286 54.948 L 14.357 53.274 L 13.363 51.525 L 12.387 49.684 L 11.519 47.75 L 10.851 45.739 L 10.459 43.683 L 10.402 41.626 L 10.714 39.616 L 11.4 37.703 L 12.433 35.928 L 13.765 34.32 L 15.325 32.889 L 17.03 31.627 L 18.794 30.505 L 20.538 29.478 L 22.195 28.491 L 23.72 27.484 L 25.09 26.399 L 26.308 25.192 L 27.401 23.835 L 28.413 22.322 L 29.399 20.674 L 30.42 18.935 L 31.533 17.169 L 32.783 15.457 L 34.199 13.882 L 35.794 12.529 L 37.556 11.47 L 39.46 10.756 L 41.463 10.413 L 43.519 10.441 L 45.577 10.808 L 47.592 11.458 L 49.533 12.312 L 51.382 13.284 L 53.138 14.279 L 54.817 15.216 L 56.45 16.024 L 58.075 16.657 L 59.733 17.098 L 61.46 17.356 L 63.281 17.469 L 65.207 17.497 L 67.229 17.513 L 69.317 17.6 L 71.424 17.836 L 73.492 18.289 L 75.453 19.01 L 77.241 20.023 L 78.797 21.33 L 80.079 22.909 L 81.066 24.714 L 81.761 26.687 L 82.193 28.761 L 82.413 30.87 L 82.49 32.954 L 82.504 34.967 L 82.536 36.884 L 82.66 38.697 L 82.933 40.416 L 83.391 42.069 L 84.041 43.693 L 84.863 45.329 L 85.807 47.014 L 86.805 48.778 Z"></path><path stroke-width="0.315" fill="none" stroke="#000" d="M 88.64 50 L 88.64 50 L 89.601 51.982 L 90.369 54.05 L 90.855 56.175 L 90.994 58.31 L 90.745 60.404 L 90.097 62.403 L 89.071 64.262 L 87.718 65.947 L 86.11 67.443 L 84.333 68.756 L 82.481 69.915 L 80.642 70.963 L 78.888 71.961 L 77.273 72.972 L 75.826 74.059 L 74.547 75.274 L 73.412 76.65 L 72.376 78.197 L 71.38 79.898 L 70.361 81.71 L 69.255 83.567 L 68.01 85.386 L 66.592 87.075 L 64.985 88.544 L 63.196 89.714 L 61.25 90.523 L 59.189 90.939 L 57.064 90.958 L 54.929 90.61 L 52.833 89.949 L 50.812 89.057 L 48.889 88.027 L 47.067 86.959 L 45.33 85.944 L 43.649 85.06 L 41.983 84.362 L 40.289 83.873 L 38.525 83.589 L 36.661 83.474 L 34.684 83.466 L 32.599 83.489 L 30.435 83.454 L 28.237 83.275 L 26.068 82.878 L 24 82.204 L 22.104 81.221 L 20.445 79.923 L 19.071 78.331 L 18.01 76.488 L 17.262 74.456 L 16.8 72.306 L 16.574 70.109 L 16.511 67.931 L 16.528 65.823 L 16.535 63.818 L 16.453 61.927 L 16.215 60.14 L 15.779 58.432 L 15.132 56.763 L 14.29 55.09 L 13.301 53.371 L 12.238 51.572 L 11.189 49.674 L 10.254 47.676 L 9.528 45.595 L 9.095 43.466 L 9.02 41.334 L 9.337 39.252 L 10.051 37.273 L 11.135 35.442 L 12.537 33.788 L 14.18 32.324 L 15.975 31.039 L 17.831 29.903 L 19.661 28.867 L 21.395 27.872 L 22.982 26.852 L 24.401 25.747 L 25.653 24.506 L 26.768 23.101 L 27.793 21.527 L 28.787 19.803 L 29.818 17.979 L 30.944 16.122 L 32.215 14.318 L 33.665 12.66 L 35.303 11.236 L 37.121 10.124 L 39.09 9.379 L 41.165 9.03 L 43.295 9.076 L 45.427 9.482 L 47.513 10.187 L 49.518 11.109 L 51.424 12.152 L 53.231 13.218 L 54.956 14.216 L 56.631 15.071 L 58.298 15.735 L 60.002 16.188 L 61.781 16.441 L 63.663 16.533 L 65.66 16.53 L 67.76 16.511 L 69.934 16.564 L 72.132 16.775 L 74.288 17.215 L 76.332 17.939 L 78.193 18.975 L 79.807 20.325 L 81.129 21.963 L 82.137 23.842 L 82.835 25.899 L 83.252 28.062 L 83.446 30.26 L 83.489 32.429 L 83.468 34.522 L 83.47 36.508 L 83.574 38.38 L 83.844 40.151 L 84.315 41.85 L 84.997 43.516 L 85.868 45.194 L 86.875 46.925 L 87.942 48.74 Z"></path><path stroke-width="0.262" fill="none" stroke="#000" d="M 89.713 50 L 89.713 50 L 90.739 52.039 L 91.562 54.17 L 92.089 56.361 L 92.25 58.565 L 92 60.724 L 91.33 62.785 L 90.26 64.696 L 88.845 66.423 L 87.162 67.951 L 85.302 69.286 L 83.366 70.457 L 81.445 71.513 L 79.619 72.516 L 77.944 73.537 L 76.45 74.641 L 75.138 75.884 L 73.983 77.3 L 72.935 78.902 L 71.933 80.67 L 70.907 82.56 L 69.79 84.501 L 68.528 86.404 L 67.083 88.172 L 65.438 89.71 L 63.6 90.931 L 61.597 91.772 L 59.471 92.198 L 57.279 92.204 L 55.077 91.822 L 52.915 91.111 L 50.835 90.157 L 48.859 89.06 L 46.99 87.926 L 45.212 86.852 L 43.493 85.922 L 41.79 85.192 L 40.055 84.69 L 38.245 84.409 L 36.327 84.311 L 34.288 84.332 L 32.132 84.388 L 29.889 84.386 L 27.61 84.234 L 25.359 83.852 L 23.213 83.179 L 21.249 82.179 L 19.534 80.846 L 18.121 79.202 L 17.038 77.293 L 16.286 75.185 L 15.836 72.953 L 15.634 70.674 L 15.603 68.417 L 15.654 66.236 L 15.691 64.167 L 15.63 62.22 L 15.399 60.385 L 14.954 58.636 L 14.279 56.929 L 13.395 55.218 L 12.35 53.458 L 11.221 51.614 L 10.105 49.665 L 9.106 47.609 L 8.327 45.465 L 7.856 43.268 L 7.762 41.068 L 8.083 38.921 L 8.823 36.882 L 9.955 35 L 11.422 33.306 L 13.141 31.812 L 15.021 30.507 L 16.961 29.359 L 18.87 28.317 L 20.674 27.315 L 22.32 26.285 L 23.783 25.161 L 25.066 23.891 L 26.2 22.443 L 27.235 20.812 L 28.236 19.019 L 29.273 17.115 L 30.41 15.174 L 31.701 13.287 L 33.179 11.55 L 34.858 10.061 L 36.726 8.9 L 38.754 8.127 L 40.894 7.773 L 43.092 7.834 L 45.291 8.277 L 47.441 9.035 L 49.505 10.02 L 51.463 11.131 L 53.315 12.262 L 55.08 13.316 L 56.793 14.216 L 58.499 14.908 L 60.243 15.372 L 62.07 15.619 L 64.007 15.691 L 66.067 15.658 L 68.24 15.606 L 70.493 15.627 L 72.773 15.812 L 75.011 16.239 L 77.132 16.966 L 79.059 18.022 L 80.726 19.41 L 82.085 21.102 L 83.111 23.049 L 83.81 25.183 L 84.213 27.429 L 84.381 29.708 L 84.391 31.956 L 84.337 34.12 L 84.31 36.169 L 84.395 38.096 L 84.66 39.914 L 85.144 41.653 L 85.856 43.357 L 86.772 45.073 L 87.837 46.845 L 88.97 48.706 Z"></path><path stroke-width="0.208" fill="none" stroke="#000" d="M 90.692 50 L 90.692 50 L 91.779 52.091 L 92.654 54.28 L 93.221 56.532 L 93.402 58.798 L 93.153 61.019 L 92.461 63.135 L 91.351 65.094 L 89.878 66.86 L 88.124 68.416 L 86.188 69.769 L 84.172 70.951 L 82.176 72.013 L 80.283 73.021 L 78.553 74.05 L 77.016 75.168 L 75.674 76.435 L 74.5 77.889 L 73.442 79.541 L 72.435 81.372 L 71.404 83.334 L 70.279 85.353 L 69.002 87.335 L 67.533 89.177 L 65.854 90.778 L 63.971 92.048 L 61.915 92.918 L 59.731 93.352 L 57.476 93.346 L 55.211 92.932 L 52.991 92.175 L 50.856 91.163 L 48.831 90.003 L 46.92 88.806 L 45.105 87.677 L 43.351 86.703 L 41.614 85.945 L 39.842 85.43 L 37.991 85.153 L 36.024 85.072 L 33.927 85.12 L 31.706 85.208 L 29.392 85.237 L 27.036 85.111 L 24.71 84.745 L 22.492 84.072 L 20.464 83.057 L 18.698 81.692 L 17.249 80 L 16.147 78.031 L 15.392 75.853 L 14.954 73.546 L 14.776 71.191 L 14.776 68.86 L 14.858 66.612 L 14.925 64.483 L 14.883 62.485 L 14.66 60.607 L 14.206 58.82 L 13.507 57.079 L 12.582 55.334 L 11.484 53.538 L 10.295 51.652 L 9.115 49.656 L 8.056 47.547 L 7.226 45.345 L 6.72 43.086 L 6.609 40.824 L 6.933 38.617 L 7.698 36.524 L 8.873 34.595 L 10.4 32.863 L 12.191 31.343 L 14.148 30.021 L 16.167 28.864 L 18.151 27.816 L 20.02 26.809 L 21.72 25.77 L 23.223 24.63 L 24.534 23.334 L 25.684 21.847 L 26.729 20.162 L 27.735 18.305 L 28.777 16.328 L 29.923 14.308 L 31.23 12.342 L 32.735 10.534 L 34.449 8.983 L 36.363 7.777 L 38.445 6.978 L 40.645 6.618 L 42.905 6.696 L 45.166 7.173 L 47.375 7.981 L 49.492 9.025 L 51.498 10.199 L 53.391 11.391 L 55.193 12.5 L 56.941 13.441 L 58.68 14.159 L 60.462 14.632 L 62.331 14.873 L 64.319 14.927 L 66.438 14.866 L 68.678 14.78 L 71.003 14.77 L 73.359 14.931 L 75.673 15.346 L 77.864 16.074 L 79.853 17.148 L 81.569 18.571 L 82.961 20.313 L 84.004 22.323 L 84.703 24.528 L 85.092 26.849 L 85.234 29.205 L 85.214 31.525 L 85.127 33.755 L 85.072 35.862 L 85.14 37.839 L 85.4 39.698 L 85.895 41.475 L 86.634 43.213 L 87.593 44.963 L 88.712 46.772 L 89.907 48.675 Z"></path><path stroke-width="0.154" fill="none" stroke="#000" d="M 91.592 50 L 91.592 50 L 92.737 52.139 L 93.662 54.381 L 94.265 56.69 L 94.467 59.014 L 94.218 61.291 L 93.507 63.458 L 92.358 65.462 L 90.831 67.263 L 89.012 68.845 L 87.003 70.215 L 84.913 71.406 L 82.847 72.472 L 80.891 73.484 L 79.109 74.518 L 77.533 75.65 L 76.164 76.939 L 74.973 78.428 L 73.907 80.126 L 72.895 82.016 L 71.86 84.046 L 70.729 86.137 L 69.439 88.193 L 67.948 90.105 L 66.237 91.765 L 64.314 93.079 L 62.209 93.977 L 59.97 94.419 L 57.658 94.401 L 55.336 93.958 L 53.06 93.155 L 50.875 92.088 L 48.806 90.868 L 46.856 89.613 L 45.007 88.432 L 43.222 87.417 L 41.454 86.632 L 39.649 86.106 L 37.759 85.832 L 35.747 85.768 L 33.597 85.842 L 31.315 85.961 L 28.933 86.021 L 26.507 85.92 L 24.11 85.568 L 21.826 84.897 L 19.739 83.869 L 17.926 82.474 L 16.443 80.739 L 15.323 78.713 L 14.566 76.47 L 14.141 74.092 L 13.986 71.666 L 14.015 69.268 L 14.129 66.957 L 14.223 64.773 L 14.201 62.728 L 13.984 60.81 L 13.523 58.988 L 12.801 57.216 L 11.838 55.44 L 10.691 53.611 L 9.444 51.688 L 8.205 49.649 L 7.089 47.491 L 6.211 45.234 L 5.671 42.919 L 5.543 40.598 L 5.87 38.336 L 6.657 36.192 L 7.874 34.22 L 9.457 32.455 L 11.316 30.911 L 13.346 29.574 L 15.438 28.408 L 17.492 27.356 L 19.422 26.346 L 21.171 25.3 L 22.711 24.146 L 24.047 22.825 L 25.213 21.301 L 26.265 19.568 L 27.275 17.651 L 28.321 15.605 L 29.475 13.512 L 30.797 11.472 L 32.324 9.596 L 34.072 7.988 L 36.028 6.739 L 38.16 5.916 L 40.415 5.552 L 42.733 5.645 L 45.051 6.155 L 47.314 7.009 L 49.481 8.11 L 51.53 9.343 L 53.461 10.594 L 55.297 11.752 L 57.075 12.732 L 58.846 13.475 L 60.662 13.957 L 62.571 14.192 L 64.605 14.227 L 66.778 14.139 L 69.08 14.022 L 71.473 13.982 L 73.9 14.12 L 76.284 14.521 L 78.541 15.25 L 80.587 16.341 L 82.348 17.795 L 83.771 19.584 L 84.829 21.651 L 85.527 23.923 L 85.902 26.314 L 86.02 28.741 L 85.969 31.128 L 85.851 33.42 L 85.77 35.581 L 85.82 37.603 L 86.075 39.502 L 86.58 41.312 L 87.346 43.081 L 88.344 44.863 L 89.515 46.705 L 90.768 48.647 Z"></path><path stroke-width="0.1" fill="none" stroke="#000" d="M 92.426 50 L 92.426 50 L 93.626 52.183 L 94.598 54.475 L 95.236 56.837 L 95.456 59.214 L 95.208 61.543 L 94.479 63.759 L 93.294 65.804 L 91.717 67.638 L 89.835 69.243 L 87.758 70.627 L 85.599 71.826 L 83.466 72.896 L 81.452 73.91 L 79.621 74.95 L 78.008 76.093 L 76.614 77.403 L 75.408 78.923 L 74.335 80.666 L 73.32 82.61 L 72.283 84.703 L 71.146 86.864 L 69.844 88.989 L 68.333 90.965 L 66.594 92.681 L 64.633 94.039 L 62.482 94.962 L 60.193 95.411 L 57.827 95.382 L 55.451 94.909 L 53.125 94.064 L 50.893 92.945 L 48.783 91.669 L 46.797 90.358 L 44.916 89.128 L 43.103 88.075 L 41.306 87.264 L 39.471 86.727 L 37.545 86.457 L 35.491 86.409 L 33.292 86.508 L 30.953 86.657 L 28.509 86.746 L 26.017 86.669 L 23.554 86.333 L 21.207 85.664 L 19.065 84.623 L 17.207 83.202 L 15.694 81.425 L 14.558 79.346 L 13.8 77.042 L 13.387 74.599 L 13.254 72.107 L 13.311 69.644 L 13.456 67.276 L 13.576 65.04 L 13.573 62.951 L 13.363 60.996 L 12.895 59.143 L 12.151 57.342 L 11.152 55.538 L 9.958 53.678 L 8.657 51.721 L 7.361 49.642 L 6.192 47.438 L 5.269 45.132 L 4.696 42.763 L 4.552 40.389 L 4.881 38.074 L 5.69 35.884 L 6.945 33.872 L 8.581 32.076 L 10.503 30.51 L 12.602 29.159 L 14.764 27.987 L 16.883 26.932 L 18.87 25.919 L 20.666 24.867 L 22.241 23.7 L 23.6 22.357 L 24.78 20.799 L 25.838 19.021 L 26.851 17.047 L 27.9 14.936 L 29.06 12.774 L 30.395 10.665 L 31.943 8.725 L 33.721 7.063 L 35.717 5.774 L 37.895 4.928 L 40.201 4.561 L 42.573 4.668 L 44.945 5.209 L 47.258 6.108 L 49.47 7.262 L 51.56 8.552 L 53.526 9.857 L 55.392 11.064 L 57.199 12.08 L 58.998 12.846 L 60.846 13.336 L 62.791 13.565 L 64.868 13.582 L 67.092 13.467 L 69.452 13.321 L 71.908 13.252 L 74.401 13.367 L 76.852 13.755 L 79.17 14.484 L 81.269 15.589 L 83.073 17.073 L 84.524 18.905 L 85.595 21.027 L 86.292 23.361 L 86.653 25.819 L 86.747 28.312 L 86.667 30.762 L 86.52 33.11 L 86.413 35.322 L 86.446 37.386 L 86.696 39.321 L 87.211 41.162 L 88 42.96 L 89.037 44.77 L 90.256 46.644 L 91.564 48.62 Z"></path></svg>