<svg viewBox="0 0 100 100" preserveAspectRatio="xMidYMid meet" xmlns="http://www.w3.org/2000/svg" xmlns:xlink="http://www.w3.org/1999/xlink" width="200" height="200" fill="none" stroke="#000"><rect x="0" y="0" width="100" height="100" stroke="none" fill="#fff"></rect><circle cx="50" cy="50" r="5.656854249492381" stroke-width="1" fill="none" stroke="#000"></circle><path stroke-width="0.3" fill="none" stroke="#000" d="M 62.72792206135786 50 L 62.72792206135786 50 L 62.74958204746483 50.63801086672924 L 62.73584368340158 51.277846699705655 L 62.68358291760049 51.916936070012014 L 62.590475540056076 52.55221574379584 L 62.45525528138392 53.18034881284703 L 62.277862875899125 53.79798805525186 L 62.05947025500541 54.4020502756369 L 61.80237839465498 54.98996555024192 L 61.509801780214296 55.559868054175226 L 61.185565276265336 56.110702160734 L 60.83374889879463 56.642227929305584 L 60.45832146084343 57.154922664832846 L 60.06280468745471 57.64978839102605 L 59.65000513967081 58.12808720055372 L 59.221842700157154 58.591036013627495 L 58.779292517481345 59.039498079622554 L 58.322443627680165 59.4737098353879 L 57.850663623035345 59.89307827779152 L 57.362846378508586 60.2960761833064 L 56.85771044262758 60.68025121679478 L 56.334110349525005 61.0423515474498 L 55.79132241078541 61.3785566348312 L 55.22927052950629 61.68478904239796 L 54.64866570536803 61.95707303478538 L 54.05104412932507 62.19189955909682 L 53.43870168987882 62.38655577494415 L 52.81453572314277 62.539380796812225 L 52.18181632997401 62.64991736973103 L 51.54391814630187 62.718940892221596 L 50.90404804730166 62.74836116742134 L 50.26500434723726 62.74100686556386 L 49.62899864008495 62.70031619822792 L 48.99756308392448 62.62996814037079 L 48.371554722314904 62.53349540822316 L 47.75125577040513 62.41392249591415 L 47.13655626399262 62.27346914310218 L 46.527194650988505 62.11335199714256 L 45.92302416043027 61.93370584740584 L 45.32426909819446 61.73363199310061 L 44.73173607293513 61.51136669081939 L 44.1469504700543 61.26454893503456 L 43.5721976310719 60.9905556589851 L 43.0104600481486 60.686865102747085 L 42.465254993596574 60.351406416670564 L 41.94038975174033 59.98285582949717 L 41.439662418460436 59.580846599108455 L 40.96654372340656 59.14607061804903 L 40.52387854851494 58.68026266024106 L 40.113644317613065 58.186072239787364 L 39.73679734286879 57.66684122595609 L 39.39322822373673 57.12631615023796 L 39.08183467323467 56.56833128173608 L 38.80070620711378 55.99650121773828 L 38.54740164644106 55.41395966674729 L 38.3192889846425 54.8231745985484 L 38.11390924860716 54.22585984383332 L 37.92932252409701 53.62299081919871 L 37.76439577334139 53.0149188799549 L 37.618998315683754 52.40156649389996 L 37.49408116547271 51.7826754978294 L 37.39162962890337 51.15807435699059 L 37.3144931075182 50.527928358588156 L 37.266110229272606 49.892939255061144 L 37.250159555795975 49.25446768548281 L 37.27017476267331 48.614561875340605 L 37.32916733438231 47.97588836235579 L 37.429298965913176 47.34157327887251 L 37.571640119669944 46.71497443356617 L 37.75604122918628 46.099413602819475 L 37.98113004877959 45.497903905339264 L 38.244434155854215 44.912908190522764 L 38.542613328847324 44.34616086521373 L 38.87177412668135 43.798577924444345 L 39.22782993203404 43.270269066597706 L 39.606865034886226 42.76065299433381 L 40.0054615427228 42.26866390460559 L 40.420952941742485 41.793025379421906 L 40.85157735684265 41.33255887984115 L 41.29651582931312 40.88648896416517 L 41.75581475652965 40.45470686947782 L 42.23020534946974 40.037958327476794 L 42.72084492085385 39.637929969556815 L 43.22901360328424 39.257220428267175 L 43.755804691488535 38.8991958724455 L 44.30184669979814 38.56774359168602 L 44.86709049312725 38.26694969899836 L 45.450686116821544 38.000736534026814 L 46.050962329850314 37.77250075123419 L 46.66550879298816 37.584793682161916 L 47.291347999494874 37.43908125343387 L 47.92517294666577 37.33561199527375 L 48.56361859049633 37.27340949494097 L 49.2035312667851 37.250391456342115 L 49.84220095380225 37.26360298775645 L 50.477526382909005 37.30953856795891 L 51.108091913364945 37.384516893326236 L 51.73314664809422 37.485066697356075 L 52.35248902315122 37.60828038311676 L 52.96627245223224 37.752096066619075 L 53.57475799630377 37.91547694979472 L 54.17804714670396 38.0984688405313 L 54.77583075140148 38.30213070689346 L 55.367188488601 38.52834773249149 L 55.950467275696404 38.77954971413563 L 56.52325731676061 39.0583682453914 L 57.082472319247294 39.36727273057478 L 57.624527246532516 39.70822712508853 L 58.145594446091096 40.0824062210814 L 58.64190866529189 40.49000270159698 L 59.110084640838714 40.930145017262106 L 59.54740850651747 41.40093276276265 L 59.95206655932261 41.899582265206284 L 60.32328173167082 42.42266221985783 L 60.6613386598539 42.96638895275785 L 60.967491277145584 43.526944457775755 L 61.243760841282956 44.100778478930515 L 61.492645550361416 44.684858760774716 L 61.716773803993334 45.276840768261025 L 61.91854039334662 45.875138757560826 L 62.099767552442266 46.47889272792283 L 62.261430515441184 47.087838926084885 L 62.40348023150407 47.70210358400279 L 62.52478498529691 48.321948972528425 L 62.623199123562586 48.947506502779575 L 62.69575248364381 49.578532826966374 Z"></path><path stroke-width="0.28076923076923077" fill="none" stroke="#000" d="M 70.52821528797017 50 L 70.52821528797017 50 L 70.70637312064409 51.036182285218366 L 70.81361861542595 52.08832759869039 L 70.83254826229955 53.1485317243326 L 70.74979634799767 54.20619195450033 L 70.55743712981459 55.249175492107526 L 70.25379619755745 56.265233356110066 L 69.84358511323109 57.24347400592216 L 69.33735131084883 58.17570100258439 L 68.75031357703845 59.05743395528773 L 68.1007230073665 59.8884700468971 L 67.40794201149849 60.672899999867276 L 66.69046363501546 61.41856052100256 L 65.9640968535713 62.13597665628099 L 65.24052040257325 62.83691324729795 L 64.52636111528965 63.53270659087306 L 63.82288841994122 64.23257888697647 L 63.12634243439148 64.94214499810646 L 62.428837961148766 65.66230229134322 L 61.71971962924303 66.38865188086676 L 60.98719240984699 67.11153833136542 L 60.220022705015246 67.8167220500287 L 59.409101420572824 68.48662288210248 L 58.54868204642696 69.1020039486205 L 57.63715085525842 69.64390996077637 L 56.677247255577825 70.09564084527085 L 55.67572244828664 70.44453372496015 L 54.64249512059235 70.68334527992678 L 53.589425253773044 70.81107022679383 L 52.52887357739693 70.83309509111997 L 51.47223912907703 70.76066222177377 L 50.42866781883213 70.60969821712638 L 49.4041009344908 70.39913426713127 L 48.40078726518069 70.14890470067402 L 47.41732170261311 69.87784730920256 L 46.44920446492175 69.60174038078165 L 45.489847110434425 69.33169547725785 L 44.53189281310201 69.0730837050381 L 43.56867635572752 68.82511145523833 L 42.59562929960504 68.58108662869849 L 41.61144042490369 68.32933706692951 L 40.61881036861927 68.05466861861794 L 39.62468897307498 67.74018969094674 L 38.639948162295134 67.36928930746129 L 37.67851429147146 66.9275411600237 L 36.75605307573258 66.4043184082038 L 35.8883587884236 65.79394135125388 L 35.089640054319084 65.09623789922783 L 34.37091202668433 64.31646791812001 L 33.73869660645325 63.46463839348069 L 33.19419932780535 62.55430782507789 L 32.73307733569179 61.60103681338181 L 32.345843867038084 60.62068053654771 L 32.01887902304492 59.62773330431781 L 31.735943460100163 58.63392414591071 L 31.48002978198367 57.647227108346996 L 31.23534344084493 56.671395187468576 L 30.989186187799408 55.706059502012025 L 30.73352302391592 54.74736384974386 L 30.466047474671615 53.78903800147993 L 30.190616020644164 52.82375920668821 L 29.916994174739816 51.84461697848297 L 29.65993561562054 50.84648543373438 L 29.437692683754467 49.827121486162106 L 29.27012234585176 48.78784415108654 L 29.176598655028506 47.73370540674714 L 29.17396522308464 46.673129503767896 L 29.274756613733253 45.617066966231874 L 29.48588640725774 44.577773071124135 L 29.80794566813698 43.56737033076757 L 30.23518506035858 42.596384143218366 L 30.75617523021553 41.6724465102514 L 31.35506258368944 40.79934370240016 L 32.01327032824986 39.97654219790033 L 32.7114454774992 39.19926816697066 L 33.43142709633203 38.45914644224793 L 34.15801220484552 37.7453338553822 L 34.8803230938238 37.04601784648702 L 35.59262984668781 36.35010237600153 L 36.29454844004361 35.64887560048209 L 36.99060980420546 34.93745116091934 L 37.68926961671336 34.215797892531256 L 38.401493474341095 33.4892187952221 L 39.139099760834455 32.76820386516666 L 39.9130674570152 32.06765533824689 L 40.7320155823641 31.4055591928496 L 41.60103528071956 30.801244324353018 L 42.521008184498925 30.273422419612324 L 43.48848164506178 29.838230869468028 L 44.496100601194385 29.50750433976055 L 45.533526065681585 29.28747725356867 L 46.588710047881335 29.178071983961438 L 47.64935356581674 29.172861475306355 L 48.704353465704806 29.259718009854854 L 49.74504752053421 29.422080956922088 L 50.76609511860664 29.6407048826764 L 51.765879192458996 29.895693802833353 L 52.74637775893339 30.168594207125906 L 53.71252264710492 30.44431269964906 L 54.67112998652498 30.71264448677364 L 55.629543390797316 30.96924408909271 L 56.59416939061428 31.215934211004857 L 57.5691006278342 31.46032503668764 L 58.555013502815356 31.71479532411229 L 59.54849432660545 31.994959230492423 L 60.541895485222604 32.31780032676127 L 61.52375708209337 32.69969007291114 L 62.47975810401833 33.1545180720806 L 63.394093192379266 33.6921447295056 L 64.25111506808555 34.31734573393034 L 65.03704562432874 35.02935718400538 L 65.74154545475892 35.82205760954969 L 66.35894403696878 36.684747372853245 L 66.88896972386983 37.60341607613533 L 67.33687589091585 38.562332960101 L 67.71293032318762 39.54576038401169 L 68.03131077871257 40.53958029698398 L 68.30852151826025 41.53263908431524 L 68.56150474211456 42.517655120404754 L 68.80566008060767 43.49159076154266 L 69.05299965405696 44.45545913621766 L 69.31065380467379 45.413607388550425 L 69.5799046608133 46.37258318585686 L 69.85586553650764 47.339742310627436 L 70.1278506663118 48.321785806279976 L 70.3804005385668 49.323421765559075 Z"></path><path stroke-width="0.2615384615384615" fill="none" stroke="#000" d="M 75.09109432016761 50 L 75.09109432016761 50 L 75.41125449601185 51.27162258694602 L 75.63485921106184 52.57206519289858 L 75.73179591702633 53.88898058695132 L 75.67885197207939 55.20536099508216 L 75.46213338301759 56.501550056405996 L 75.07846472866808 57.757678225133404 L 74.5356220927736 58.956201202253254 L 73.85138517652575 60.084203910147004 L 73.05152987118747 61.13515827448897 L 72.16700256613903 62.109888694255446 L 71.23060832181329 63.0165966433822 L 70.27359625130816 63.869913432978066 L 69.322531297179 64.6890732945136 L 68.39680176173513 65.4954123615922 L 67.50703159419118 66.30948865727754 L 66.65455550041816 67.14817249376576 L 65.83198694678391 68.02206865692978 L 65.02477954176518 68.93359940643762 L 64.21356662643431 69.87600410208645 L 63.37697591056639 70.83340561563864 L 62.49456592688841 71.78196807193865 L 61.54952454195828 72.69203988044285 L 60.53080703673605 73.53105619151785 L 59.434467308075554 74.26688039036429 L 58.264040820054596 74.87120663560088 L 57.02995885860402 75.32263201369175 L 55.74809538075161 75.60903961636647 L 54.437655272516764 75.72900923945181 L 53.11869295259386 75.69208181148852 L 51.80959324974737 75.51783434825515 L 50.524847240609795 75.2338588619254 L 49.27341440595506 74.87286513332731 L 48.057884404228076 74.46922864288126 L 46.87454686893734 74.05536925531607 L 45.714359123276736 73.65836585094829 L 44.56468446421753 73.2971846705348 L 43.411572435472166 72.98082794059245 L 42.242280044170904 72.70760280227341 L 41.047698386256414 72.46558128192225 L 39.8243571409662 72.23418528130122 L 38.575729122508186 71.9867024340371 L 37.31264259881413 71.69343419101156 L 36.05271999362448 71.32510880618051 L 34.81888426318302 70.85616682671476 L 33.63709352152614 70.2675478459299 L 32.533565528847404 69.54867173256929 L 31.53182374152477 68.69840724023389 L 30.64992674206026 67.72494361050015 L 29.89822884444237 66.64461163583577 L 29.277962696727656 65.47982390975575 L 28.78084122592772 64.2564049699396 L 28.38975724188696 63.00064885132832 L 28.080528587293827 61.73646655309306 L 27.824510541804564 60.48296655577217 L 27.591790524311726 59.25275067587856 L 27.35460601805612 58.05111311007511 L 27.09059427667074 56.87621442745169 L 26.785496011922433 55.72017900104609 L 26.434993684127292 54.57094918809603 L 26.04546161696517 53.41463663744178 L 25.633528747124757 52.23805176226345 L 25.224490932468427 51.03107380304683 L 24.84974236726673 49.78854808970043 L 24.54350913810207 48.51146085828988 L 24.33924888047085 47.207237157966055 L 24.26611928355145 45.88912198475693 L 24.34591024433091 44.574724390649074 L 24.590780733608106 43.283913910046536 L 25.00204826989513 42.036344429037776 L 25.57015732844646 40.84893174390249 L 26.27581740799598 39.73362094599405 L 27.092167825897622 38.69574696600287 L 27.98771031358477 37.733219944595504 L 28.929665678329123 36.836665243213034 L 29.88736695425759 35.9905283338958 L 30.83530343309326 35.175032248025104 L 31.755477109620095 34.368764928779754 L 32.63881938517346 33.551589533524364 L 33.485530699095605 32.70752318575539 L 34.30433512746287 31.827225169950072 L 35.11077029256643 30.909775162835093 L 35.92474481300535 29.96350148359452 L 36.767677744370886 29.005729315405468 L 37.65957745669495 28.061446393619686 L 38.61641643352 27.161013521194942 L 39.648114193251956 26.33716380190007 L 40.75735882005613 25.62162350466042 L 41.939388854449305 25.041738023461676 L 43.18273515761206 24.617492058874767 L 44.47080199275842 24.359272845059085 L 45.784062805065425 24.266643403165734 L 47.10257173579878 24.32827883158511 L 48.408455798584065 24.523085839068624 L 49.68805911988217 24.822389683201813 L 50.9334586604633 25.192949430667284 L 52.14315420624977 25.600466569747244 L 53.32184359121832 26.01319482593932 L 54.47931347510689 26.405247330208944 L 55.628591546764625 26.7592324524559 L 56.78360323291059 27.06792747472207 L 57.95664259870377 27.334810621288863 L 59.155994648400444 27.573403619058098 L 60.38403102345011 27.805513391408706 L 61.63604479973072 28.058586636931125 L 62.89999946180278 28.362490257277262 L 64.15725323016935 28.74609236784454 L 65.38419673750664 29.234035951884344 L 66.55462483217376 29.84406843055077 L 67.64256664616214 30.585219349083435 L 68.62523419084282 31.45701387084768 L 69.48572689736187 32.449784604641565 L 70.21515099481309 33.54601361899829 L 70.81387631717104 34.72251601102233 L 71.29175177499977 35.95318043280052 L 71.6672227267081 37.21192179582681 L 71.96542430698723 38.475483815394256 L 72.21544869668897 39.725755745425225 L 72.44708633499903 40.95133482796619 L 72.68740869380787 42.148164982961596 L 72.95758501590889 43.31920062112843 L 73.27030400936042 44.47316743108486 L 73.62810605075781 45.62260436607683 L 74.02282942048659 46.78145903189999 L 74.43624732157382 47.962561538428155 L 74.8418357727971 49.17531329398434 Z"></path><path stroke-width="0.24230769230769228" fill="none" stroke="#000" d="M 78.3285085145825 50 L 78.3285085145825 50 L 78.77200810961548 51.43980043920001 L 79.09857864421126 52.91959634641963 L 79.26714035221246 54.42329563907436 L 79.24597741225955 55.92845311972496 L 79.01603343844923 57.40900972438746 L 78.57281903607138 58.83860868139277 L 77.92672955434341 60.19405205475831 L 77.10175419354472 61.458437888939244 L 76.13274169619487 62.623553254796505 L 75.06155133117333 63.69118789156795 L 73.93254165794178 64.67316605771958 L 72.78791933154349 65.59005440023012 L 71.66347816888505 66.46867140452278 L 70.58520443521698 67.33867850524032 L 69.56711483497064 68.22865491157779 L 68.61054255097865 69.16213217811406 L 67.7049122982261 70.1540808539113 L 66.82986880937264 71.20829748042507 L 65.95846560555877 72.31604045455998 L 65.06100102348975 73.45611933501834 L 64.10902026279608 74.5964710329952 L 63.07899331564548 75.69707842400504 L 61.95522942284107 76.7139236670083 L 60.731692293917796 77.60353974196121 L 59.41252348510563 78.32764523529562 L 58.011246074937056 78.85732909780468 L 56.548786631244006 79.1762966982517 L 55.05059995075258 79.28279120788716 L 53.54329021107732 79.1899534095302 L 52.05118074493841 78.92456107192925 L 50.59328568011049 78.52427517636464 L 49.18108038300483 78.0336925965764 L 47.8173612968009 77.49964296134144 L 46.49634286130312 76.96625502962556 L 45.20497774080652 76.47034460763689 L 43.925326858486436 76.03763867236194 L 42.63766781755179 75.68025336383192 L 41.323931564661095 75.39569835425469 L 39.97101016264071 75.16750396578192 L 38.57348943237693 74.96738108823536 L 37.13542797223226 74.7586493833089 L 35.670920577162555 74.5005269141427 L 34.20333517718192 74.15278075491227 L 32.76327954576446 73.68020398310708 L 31.38551653807571 73.05641327768615 L 30.105184275290384 72.26654915888173 L 28.953773173047818 71.308596721893 L 27.9553527468646 70.19321189468175 L 27.12352202307101 68.94211652173047 L 26.459479763747805 67.58529350507831 L 25.951483362854752 66.15735080527301 L 25.575803108175176 64.69351412755927 L 25.299100808375734 63.2257421602682 L 25.081989879822824 61.7794318460769 L 24.883388670421827 60.37109826680587 L 24.66517781873178 59.00728506501882 L 24.396628350963287 57.6848031612288 L 24.058085805279212 56.392227587537185 L 23.643475263958184 55.11242533646576 L 23.16132378179319 53.825760515595285 L 22.634165074951028 52.51354225419857 L 22.096376773661326 51.16125544949835 L 21.59068122870166 49.761147388141175 L 21.163695472418052 48.313830125902186 L 20.8610261883558 46.82868818075137 L 20.722458387301863 45.32303722543194 L 20.777775661868432 43.82014242319348 L 21.043676679107765 42.34635435930674 L 21.52212564206097 40.927737391114164 L 22.200308827638416 39.586634885989845 L 23.052184562453398 38.33862929159504 L 24.041431912874394 37.19031029095581 L 25.12544533055865 36.13816665812454 L 26.259906956449058 35.16877866678532 L 27.4034085552666 34.260324996953194 L 28.521597733241947 33.38525111227335 L 29.590387321124954 32.513795761451675 L 30.597884390005852 31.61795741018579 L 31.54485180597668 30.67541763324362 L 32.44369148097507 29.672932357177995 L 33.31611327725443 28.608755795070444 L 34.189805955625836 27.49377007339185 L 35.094538573390096 26.35114337274331 L 36.05817931547959 25.214513167231008 L 37.10311743278618 24.12486807417415 L 38.24351362957459 23.12646058486978 L 39.48369291673356 22.262204230887097 L 40.81784580571832 21.569077610653608 L 42.23103732147703 21.07406541465077 L 43.70135932129636 20.79111168054872 L 45.20292024281817 20.719449008079764 L 46.70926498047548 20.843512191781095 L 48.19676839701517 21.134463798962347 L 49.64755479706522 21.553173876521782 L 51.051561104388135 22.054328061670738 L 52.407475068831396 22.591207738037223 L 53.722427204278624 23.120607978141717 L 55.010477773482535 23.60734307170037 L 56.29009755686321 24.027837345123633 L 57.580973578504135 24.37240505590697 L 58.90056170655731 24.64597483756649 L 60.260845540666814 24.867193537741574 L 61.66574027580092 25.066030162480903 L 63.109503535361156 25.280171140228973 L 64.57639170165339 25.550633285515552 L 66.04164509327215 25.91710499649319 L 67.47371752000294 26.41354982657879 L 68.83750604993979 27.064567350161067 L 70.0982051607636 27.88290941453085 L 71.22532242616748 28.86840748940945 L 72.19636176249672 30.00839630068634 L 72.9997095195266 31.279540909766762 L 73.63634548026977 32.65081025129074 L 74.1201352272443 34.087209401371275 L 74.47662654197025 35.553800856663266 L 74.74045073564447 37.01952118326808 L 74.95159864476724 38.460335754701006 L 75.15098001137822 39.86136581491941 L 75.37576709066893 41.21775698072095 L 75.65505709083689 42.53421954623688 L 76.00635888209857 43.823338482786404 L 76.43332025752497 45.10290412457025 L 76.92497302425406 46.3926343884519 L 77.45660049164559 47.710731393019465 L 77.99214573762185 49.070730896307246 Z"></path><path stroke-width="0.22307692307692306" fill="none" stroke="#000" d="M 80.83964205258859 50 L 80.83964205258859 50 L 81.39172273934955 51.5708954347283 L 81.80982548751359 53.19162840938508 L 82.0432490010582 54.84286342507118 L 82.05281489717882 56.497427245960026 L 81.81493213473537 58.12368589480022 L 81.3239497909823 59.6896331513026 L 80.59254922578057 61.167152196912355 L 79.6501523943441 62.535883366881755 L 78.539550082376 63.78617423770976 L 77.31215545329901 64.92069852713792 L 76.02244095062153 65.95449420930872 L 74.72220264874326 66.91336881528774 L 73.45530596207536 67.83082677539602 L 72.25349970237598 68.74386422394988 L 71.13375046082953 69.68812711465021 L 70.0973628928834 70.693019729546 L 69.1309364266499 71.77737076914916 L 68.20899118099241 72.94620987002925 L 67.29790155880936 74.18908437105158 L 66.36062813197898 75.4801686329504 L 65.361654315874 76.78020715553221 L 64.27152335254905 78.04011333057045 L 63.070433750452835 79.20584433429553 L 61.75047908814047 80.22401384732194 L 60.31629464152232 81.04760749975925 L 58.7840764722554 81.64114336384915 L 57.179143159510616 81.98467481926751 L 55.53239101762385 82.07615978876527 L 53.87612826540301 81.93190417278187 L 52.2398458461663 81.58500689371942 L 50.64648387237758 81.08196353120434 L 49.1096832280327 80.47779804138555 L 47.63238070612197 79.83026240421697 L 46.20692981789031 79.19375207874396 L 44.81673028382135 78.6136180741431 L 43.43915222691568 78.12151036284006 L 42.049370996736016 77.73226773065204 L 40.62460679728047 77.44269014280712 L 39.1482053417579 77.23231247874827 L 37.61300919130801 77.06606870284598 L 36.02355298772372 76.89852025037698 L 34.3967594846751 76.6791468532358 L 32.76099962776411 76.35808261393404 L 31.153586053367878 75.8916380172922 L 29.616969796079886 75.24698411290532 L 28.194079763737847 74.40548339899098 L 26.923362295080903 73.36431943808722 L 25.834128722608767 72.13628341249863 L 24.942795302387008 70.74779568645619 L 24.250504145199212 69.23544754619068 L 23.742456723527717 67.64151795322385 L 23.389091536807804 66.00903240269807 L 23.149018369100506 64.37697296140507 L 22.973409566558505 62.77621601833969 L 22.811369544908025 61.226672041445546 L 22.615679201719473 59.735942963294534 L 22.348257526021126 58.299617757003986 L 21.984705620732903 56.90311964876399 L 21.517396511855694 55.524824884146135 L 20.956736428031743 54.140016821779255 L 20.33043088913259 52.725139423967214 L 19.68081764141994 51.261782939536026 L 19.06055131448762 49.73987520829001 L 18.52711535401443 48.15965912378765 L 18.136772757957306 46.53219671340262 L 17.938632315183746 44.87833284818595 L 17.969493694597745 43.226252567567364 L 18.250044441151914 41.607950144006935 L 18.78282539657158 40.05507214653501 L 19.55217680230788 38.594682656056946 L 20.526149498776885 37.245515403820725 L 21.66014107252688 36.01522248682653 L 22.90182190142461 34.899008900353195 L 24.19677355683343 33.87987099344495 L 25.494188356805836 32.93045604275617 L 26.751982170528688 32.016354215887404 L 27.94075178722488 31.10044880975767 L 29.04615317890995 30.147809010718674 L 30.069469919293677 29.13052953525157 L 31.026358388792893 28.031913938871156 L 31.943971973540524 26.84946491763968 L 32.856854458879155 25.596278316959413 L 33.80213096496054 24.300622334785892 L 34.81459701487032 23.00369770527072 L 35.92230471076018 21.755792849763772 L 37.14317058710382 20.611243776862473 L 38.482992414993625 19.622758090380366 L 39.93507953075404 18.835747400726174 L 41.481496048357066 18.283321948315876 L 43.09571406762107 17.982533531993596 L 44.74629964896241 17.93231532277096 L 46.40112924113355 18.113375649611978 L 48.03157358010438 18.49007970549976 L 49.616096955181725 19.014124541113137 L 51.14280041323138 19.62960563501069 L 52.6105775534287 20.278912221341287 L 54.028733320250915 20.908792483013023 L 55.41511675203682 21.4759100580023 L 56.793012787149 21.951272388138943 L 58.18720156086131 22.323042264341883 L 59.61970553897702 22.59743100137857 L 61.10579107654749 22.797592885409937 L 62.6507654324532 22.960669768326312 L 64.24801568213361 23.133344958209857 L 65.87858370382018 23.36643225378607 L 67.51238003469325 23.70912975665397 L 69.11093242525175 24.203597208217623 L 70.63136797004097 24.880467228705612 L 72.03116531551757 25.755781419825297 L 73.27310612437016 26.829666697095238 L 74.32981658848755 28.086856912926812 L 75.18732586708123 29.49894527638484 L 75.84717535175706 31.028050634133976 L 76.32677840410001 32.631419437161796 L 76.65793519417895 34.26638409893086 L 76.88362707754095 35.895068948999466 L 77.05342317029599 37.488279828648224 L 77.21800319053102 39.028126241112275 L 77.42341424791609 40.50909131207627 L 77.70572090140642 41.93746368091248 L 78.0866718324984 43.32925205558799 L 78.57089652902381 44.70689197624418 L 79.1449739430677 46.09520215091838 L 79.77850208387588 47.51713654411571 L 80.42706788748093 48.989897581670704 Z"></path><path stroke-width="0.20384615384615384" fill="none" stroke="#000" d="M 82.89138754677992 50 L 82.89138754677992 50 L 83.54055909415331 51.67842687694215 L 84.04101475216056 53.415494052614015 L 84.33346894209237 55.18899631526084 L 84.37208365427192 56.96756629806452 L 84.12921878558632 58.71462029448469 L 83.5981820689331 60.39313563490506 L 82.79368762648087 61.970630434233435 L 81.74999598616705 63.42368299791528 L 80.51697371714852 64.74137874135657 L 79.15454647406439 65.92720132904788 L 77.72619765021336 66.99907632400307 L 76.29226540906022 67.98750654102713 L 74.90380233628437 68.9319800911989 L 73.59768374317136 69.87605482271574 L 72.3934928580189 70.86169867231328 L 71.2924932928053 71.92357207000862 L 70.27874782870855 73.08396203672913 L 69.32218809115679 74.34901410412454 L 68.38321257690272 75.70676440271544 L 67.41821770007742 77.12726679582134 L 66.38536821231638 78.56486326424275 L 65.24990052072718 79.96238932018 L 63.98832562342193 81.25687092373228 L 62.59104769863045 82.38608376230219 L 61.0631207248356 83.29523263174866 L 59.423102969389824 83.94298227349347 L 57.70020824022871 84.30613530503106 L 55.930163938129034 84.3824009270223 L 54.150343285012816 84.19091293858371 L 52.39482352491178 83.77041222414738 L 50.69002338406407 83.17527718097679 L 49.05149191923046 82.46983392488328 L 47.482267597701465 81.72157720557666 L 45.97302047497885 80.99405922783575 L 44.50395761088177 80.34024205814832 L 43.04824163768697 79.79705543965736 L 41.57647360237996 79.38176202148435 L 40.06164890604777 79.0905227871026 L 38.48392743564298 78.89930158808518 L 36.83457468404449 78.7669791321551 L 35.1185283051926 78.64029516132337 L 33.35521249095679 78.46003237971765 L 31.577440344187863 78.16772080068378 L 29.82848532041459 77.71209195676464 L 28.157637047165064 77.05455395697145 L 26.614755244093697 76.17308494610192 L 25.244473092059696 75.06413828267486 L 24.080760545855956 73.74239371746282 L 23.142530549144485 72.23844581014546 L 22.430859230928103 70.59476287020814 L 21.928207602515403 68.86044799945701 L 21.599798537562926 67.085465010869 L 21.39704669293184 65.3150410649726 L 21.262691249765275 63.58491983230049 L 21.13707189803817 61.918019500532125 L 20.964842939763134 60.322864501591525 L 20.701356828076513 58.79393185997764 L 20.317975250221068 57.313811002355 L 19.805680583178226 55.85684968522455 L 19.17655024682482 54.393776207938906 L 18.462899172045248 52.896671551337406 L 17.71416288833946 51.343628531084185 L 16.99185417239434 49.72248254500542 L 16.363149051048246 48.03312367313257 L 15.89381686847019 46.28808679490091 L 15.641285295158376 44.51134143083746 L 15.648615552850956 42.73543789845941 L 15.940057603095063 40.997381581927215 L 16.518672096202387 39.333775568372445 L 17.366267152524593 37.77587229056403 L 18.44563176087639 36.34519423814784 L 19.704785126479432 35.05031938217397 L 21.08273351385045 33.88528622681034 L 22.51605959669179 32.82987339255283 L 23.94558323260201 31.851773825456437 L 25.32233644460451 30.91044305733701 L 26.612187970077834 29.962184276466235 L 27.79862222238668 28.96586743095044 L 28.883402996850794 27.888586219800143 L 29.885106296661174 26.710547978075088 L 30.83575860658025 25.42856922602033 L 31.77603665473197 24.057705549247935 L 32.74964615941285 22.630760426027503 L 33.79758149017815 21.195668075111513 L 34.95296628510903 19.81100041533019 L 36.237088105371186 18.540077059274562 L 37.65707974737923 17.44433207866146 L 39.20548630543151 16.576690546959163 L 40.86171723845623 15.975718983233087 L 42.595146322065396 15.661234680053973 L 44.36941860955262 15.631898183405028 L 46.14737733583536 15.865089388566211 L 47.89595279360943 16.31910692768067 L 49.59036792436876 16.937463375725045 L 51.21710965389473 17.654806783190644 L 52.775278719195924 18.403810752478186 L 54.27614315653524 19.122262991742858 L 55.74095500830138 19.759559302547608 L 57.197316709001164 20.28187900823955 L 58.6745745003929 20.67547072861678 L 60.1988470215791 20.947696051315326 L 61.7883512646399 21.125737185196908 L 63.449658216445286 21.253142589721875 L 65.1753999589691 21.384630329255426 L 66.94377204162996 21.579763726749338 L 68.7199512690562 21.896235188963107 L 70.45930715799211 22.383528100858296 L 72.11205513568999 23.077670156036188 L 73.62880977695572 23.99765192545714 L 74.9663709472608 25.143879243250506 L 76.09303085511704 26.49878219903426 L 76.99273218961272 28.02944692582937 L 77.66753260246838 29.69189977361318 L 78.13802450340785 31.43648501290063 L 78.44159870691317 33.21365903220327 L 78.6286973656457 34.97948951390791 L 78.75744498081369 36.70020048191008 L 78.8872466098845 38.35523602422921 L 79.07207517545403 39.93850990382586 L 79.35421844255714 41.45774068995506 L 79.75921418955562 42.93201351636841 L 80.29257359299818 44.38793024284595 L 80.93869248990734 45.85488255628642 L 81.66210123840713 47.36008635088747 L 82.4109355349739 48.924038146388 Z"></path><path stroke-width="0.1846153846153846" fill="none" stroke="#000" d="M 84.62611364458053 50 L 84.62611364458053 50 L 85.36324948087335 51.769637417733286 L 85.93864175530538 53.60589183571505 L 86.285239764761 55.48397762414467 L 86.35118036415028 57.36874906239906 L 86.1051586741165 59.21916058183927 L 85.53953721893598 60.99366715616728 L 84.67086453329843 62.655853495059475 L 83.53777253047974 64.17954279746984 L 82.19652188402091 65.55269299131132 L 80.71473107676199 66.77953406211753 L 79.16402647696661 67.88061667350145 L 77.61246450222669 68.89070333500163 L 76.11758990259591 69.85470673872268 L 74.7209057705238 70.82213168503489 L 73.44435248714105 71.84067578270162 L 72.28914651947335 72.94976466019469 L 71.23704582047966 74.17482398978332 L 70.25382088328578 75.52301882286525 L 69.29445373830231 76.98102817745894 L 68.30939182370895 78.51518825997765 L 67.25107251088558 80.07405882185665 L 66.07991955954948 81.59317724240637 L 64.76909553074006 83.00149889931463 L 63.30746299885426 84.228812538889 L 61.70044068813337 85.21329146583699 L 59.96870912507399 85.90831154250981 L 58.14499066999717 86.2877396644067 L 56.2693675035647 86.34906375529553 L 54.383779026311174 86.11397822725687 L 52.52643557354677 85.62632899205694 L 50.72688703235833 84.94762544961253 L 49.00239319299155 84.1506076781308 L 47.35606936615617 83.31158214077809 L 45.77704792500029 82.50238197527608 L 44.24263331740407 81.78285144112655 L 42.72216780543104 81.19469320995506 L 41.182100440248014 80.75735911116583 L 39.59159090123881 80.46642840473329 L 37.92790325676481 80.29463062460077 L 36.18086245484614 80.19536641205504 L 34.355756753578 80.10829529107701 L 32.474259169588 79.9663273707203 L 30.573187248090733 79.70320345632886 L 28.701192811157537 79.26079239770473 L 26.91373816258098 78.59528146720766 L 25.266939549696783 77.68157865781431 L 23.811014277785326 76.51546711429701 L 22.584134742287713 75.11332433982528 L 21.607461512487387 73.50950932746592 L 20.882001112632658 71.75179441983394 L 20.38772661796381 69.89544288300036 L 20.085134926920524 67.99668150900177 L 19.919125002794395 66.10637303451699 L 19.824801246436834 64.2646501644849 L 19.734569356037458 62.49713789718483 L 19.585727477214096 60.813181189819126 L 19.327683589769 59.20623726213112 L 18.927960366528257 57.65631816739823 L 18.376278440054215 56.13411354325181 L 17.686223478614302 54.60621713679838 L 16.894276854775306 53.04074895610637 L 16.05629187794031 51.41262357627151 L 15.24179200545779 49.70776881945455 L 14.526719397661125 47.92574055285517 L 13.985441849034736 46.080390659346676 L 13.682912241115787 44.19849966312217 L 13.667857021917058 42.31655104461909 L 13.967750911413141 40.47606758962177 L 14.586128193071481 38.7181205664563 L 15.502511055466094 37.077736019847904 L 16.674934390836455 35.578944428685986 L 18.044749735634024 34.23114714619428 L 19.543133508195144 33.02731393443548 L 21.098536420482915 31.944299779477774 L 22.644213605023854 30.94530370375628 L 24.124979366996627 29.984220197446415 L 25.502435138457614 29.01138893442116 L 26.758110826782264 27.980061286215626 L 27.894214678470593 26.85279658897171 L 28.93197399504913 25.60699111437384 L 29.9078338885107 24.238830613077408 L 30.86802966500681 22.76513355244859 L 31.86223096423631 21.222796316837755 L 32.93705123902687 19.66583479926177 L 34.1302140258803 18.160305129949 L 35.46606914169782 16.777644997752155 L 36.95297052915296 15.587174662120539 L 38.58278606464998 14.648608983211027 L 40.33253848686422 14.00544436795878 L 42.16790936736487 13.679995055132451 L 44.04810768185967 13.670671462400556 L 45.93143926243378 13.95184029159907 L 47.78083324813448 14.47631124804974 L 49.56859602469724 15.18019319818709 L 51.27976974259884 15.989588970127294 L 52.913657597240416 16.828385124662276 L 54.483318214598036 17.626266079722562 L 56.013096478789755 18.326055993826103 L 57.534514668089045 18.8895698808927 L 59.0810635808837 19.3013282921422 L 60.68258120739188 19.569737095085546 L 62.35996760453093 19.72562617249257 L 64.12095086113095 19.81834375492684 L 65.95749405760738 19.90988094470199 L 67.84523192858754 20.06772125384272 L 69.74507306132074 20.357247114774403 L 71.60682998848078 20.8345737908667 L 73.37447929685183 21.54061720183425 L 74.99243931846011 22.497044390941934 L 76.41211116304093 23.704523340775513 L 77.59787812835549 25.143410961329582 L 78.53180620416813 26.77672796858061 L 79.21642980173272 28.555001879067152 L 79.67522584341579 30.42234629431466 L 79.95065019779705 32.32301103716698 L 80.09990088681563 34.207598720740826 L 80.18884762227958 36.03820258279693 L 80.28479371699147 37.79186955226807 L 80.44888653713039 39.4620123096155 L 80.7290476800967 41.05765686973425 L 81.15424653017764 42.60068522036771 L 81.7307955601805 44.121482032979614 L 82.4411192287437 45.65358978074059 L 83.24516687497972 47.22809395562725 L 84.08433660819728 48.868485423491784 Z"></path><path stroke-width="0.16538461538461538" fill="none" stroke="#000" d="M 86.1288017411948 50 L 86.1288017411948 50 L 86.94648701437904 51.84886532867419 L 87.59072376975749 53.77165294289337 L 87.98735918733922 55.74122781423729 L 88.07901873284166 57.71899923946974 L 87.83104420728783 59.65985150968683 L 87.23493139144094 61.51811403109997 L 86.30890357834238 63.25378442214533 L 85.09558704274265 64.83817620930648 L 83.65708613768356 66.25822595270157 L 82.06805024768583 67.51885569474655 L 80.4075478381245 68.6430261028625 L 78.7506885504275 69.6694043025155 L 77.16094863339593 70.6478726357514 L 75.68405723760199 71.63338297438082 L 74.34410385920015 72.67888097574169 L 73.14225491059364 73.82815795303534 L 72.05815321918405 75.10951740280242 L 71.05375616770695 76.53106384503707 L 70.07908430745582 78.07824190438609 L 69.07913628355587 79.71399422775355 L 68.0011030228675 81.38159849634926 L 66.80099809600338 83.00992326053888 L 65.44891265874863 84.52054819756137 L 63.93229002134616 85.8359623783399 L 62.256872817908494 86.88791272917112 L 60.44527256983007 87.62494189347771 L 58.53341025509772 88.018235051787 L 56.56534042091263 88.06508031301101 L 54.587168047343035 87.78951584745226 L 52.640872894885774 87.24005771788775 L 50.75885793107233 86.48473774327867 L 48.95993698562706 85.60399118656332 L 47.247285178785106 84.68218292237302 L 45.60861819838496 83.79871856949214 L 44.01857559805944 83.01973517647986 L 42.44299550814865 82.39129872841443 L 40.84451966433784 81.934860973524 L 39.18878978723101 81.64546654445496 L 37.45041168730149 81.49288400435088 L 35.61788309535487 81.4254987547369 L 33.69680328089325 81.37649122910749 L 31.710892443334618 81.27156732857297 L 29.700621092808962 81.03733944510005 L 27.71955075647558 80.6093948859207 L 25.828780138769712 79.9391404379442 L 24.09013887906077 78.99867002199201 L 22.558943079592762 77.78314708604454 L 21.277200709055766 76.31049458992625 L 20.26812056746635 74.61850662453668 L 19.53263865069616 72.75979826595737 L 19.04844630522561 70.79525812591154 L 18.771712396645942 68.78683205477076 L 18.64137156310622 66.79052778558946 L 18.585540905609058 64.85048276724585 L 18.529365649956976 62.99478807392502 L 18.40341238226772 61.23352947648405 L 18.15164901358865 59.55922179684903 L 17.738084117431256 57.949510093334865 L 17.151281683543466 56.371728498857465 L 16.40620444891978 54.78867942455063 L 15.543142329537012 53.16485018413739 L 14.623816581640554 51.47223840588008 L 13.725075864114189 49.69501696099836 L 12.930878935494853 47.83242560992976 L 12.32345736265519 45.899510197353294 L 11.974646827033993 43.925611527347904 L 11.938356110318715 41.95079964975733 L 12.245010935220023 40.02071829811399 L 12.898581150958265 38.18051478385927 L 13.876501350619101 36.46865613365371 L 15.132462152567825 34.91145653455369 L 16.60172131640219 33.519060630880674 L 18.20829913360772 32.28345130511698 L 19.873214368883623 31.178800566041687 L 21.522809411689956 30.164188658449604 L 23.096218127912085 29.188415675279035 L 24.551145623645958 28.196359124315865 L 25.867340986796783 27.136123982393944 L 27.04742592711233 25.96611506244975 L 28.115059786838465 24.661150458253793 L 29.11073633109294 23.216832035094363 L 30.08578236470807 21.651583804066053 L 31.095330040951175 20.006038950997127 L 32.19114026688169 18.33976935939786 L 33.41515225106439 16.725670235659663 L 34.794525539692366 15.242598480548644 L 36.33874031352546 13.967081967851136 L 38.03905481181994 12.965040974790938 L 39.870318953836104 12.28447690683258 L 41.7948477663392 11.949984534374025 L 43.76780353147628 11.959743067628722 L 45.743352834472574 12.285361644365182 L 47.680776060716184 12.874628823664601 L 49.54972278339529 13.656881746555541 L 51.333924340253475 14.550408104941937 L 53.03287954248214 15.471058698937838 L 54.66129498412992 16.34110801040351 L 56.246354402284055 17.097371499270686 L 57.823175163246916 17.69767464166906 L 59.42904855942423 18.1249598502375 L 61.09722409453305 18.388590720216193 L 62.8510654898993 18.52273621005528 L 64.6993688075577 18.582052247597325 L 66.63349490196352 18.635185443345286 L 68.626745966053 18.756867121654242 L 70.63613635278364 19.01951750132095 L 72.6064054944863 19.485322388583104 L 74.47583301877266 20.19967408304782 L 76.18317894332603 21.18669374339852 L 77.67491504635491 22.447295933474326 L 78.91185742973087 23.959948836172597 L 79.87436300699609 25.68396287594685 L 80.56540900087063 27.564844745324056 L 81.01111666883924 29.541018276568664 L 81.25857993349346 31.55106587573048 L 81.37118071207868 33.54060113778286 L 81.42187692988242 35.467948771932015 L 81.48519961178431 37.30797285180499 L 81.6288614235304 39.05363741509569 L 81.905939862782 40.7151739579805 L 82.34854574771552 42.317032208792824 L 82.96372702163907 43.89306640014296 L 83.73210744853614 45.48062520600182 L 84.60944859956396 47.11434326299805 L 85.53098808080892 48.820460219210894 Z"></path><path stroke-width="0.14615384615384613" fill="none" stroke="#000" d="M 87.45426657897737 50 L 87.45426657897737 50 L 88.3463544124912 51.91891708477494 L 89.05434569006891 53.918504968324896 L 89.49753361362231 55.96946835545965 L 89.61345711851767 58.03004529911599 L 89.3643624344842 60.05137193166239 L 88.74094385942011 61.98397827980998 L 87.7629679783716 63.78455936147451 L 86.47674438335198 65.42212016692655 L 84.94976682525301 66.8826619070567 L 83.26316923184966 68.17175217145483 L 81.50288369429569 69.31458222658249 L 79.7505243158314 70.35342875192481 L 78.07503642115196 71.3427661931979 L 76.52604424364257 72.3425788460697 L 75.12961558024885 73.41066091431524 L 73.88686559077627 74.59483781934289 L 72.7754800475154 75.9260739975684 L 71.75389221388555 77.41334603703223 L 70.76753862432712 79.04096443461887 L 69.75638400578046 80.76874506185106 L 68.66277185983428 82.53509590997221 L 67.43863977164006 84.26273590061024 L 66.05123807062814 85.86644249256395 L 64.48669356378602 87.26197234933915 L 62.75104072199689 88.3751454671119 L 60.8686656863352 89.15004727489367 L 58.87843362000877 89.55539065469624 L 56.82805712215441 89.58828119692615 L 54.767477426459095 89.27492123683999 L 52.74214493475724 88.66813728102201 L 50.78708766215538 87.84198037454797 L 48.92254578216484 86.88398678310556 L 47.15174196544821 85.88595716604098 L 45.46107704090247 84.9342841578301 L 43.822723961392335 84.10091061932754 L 42.19927990788791 83.43592756532098 L 40.54986597505763 82.96263059974959 L 38.836870330190514 82.67556911252493 L 37.03243861589742 82.54177717332851 L 35.12383672275565 82.50500977316597 L 33.11694388011937 82.49246582697114 L 31.037362440574785 82.42320027533434 L 28.92892696253664 82.21724414950302 L 26.84972285838696 81.80438450773559 L 24.866043477701528 81.13161265349464 L 23.044984372742633 80.16842120318317 L 21.446560687210248 78.90939684067793 L 20.116314058910916 77.37388335015004 L 19.079337973285146 75.60283902223772 L 18.33649832990458 73.65334175621489 L 17.863376310525176 71.59146489084785 L 17.6121427157645 69.48442524743061 L 17.51622456378181 67.39297160716944 L 17.49728772335761 65.36493011395541 L 17.473774457557298 63.430660566527536 L 17.370036783963975 61.60092532898142 L 17.125020107943307 59.86736250455184 L 16.6994880257529 58.20542577248262 L 16.080935234533165 56.57934563956621 L 15.285593505885245 54.948418640611415 L 14.357265783693116 53.273772525239195 L 13.363087023631735 51.52470575242163 L 12.38666463116246 49.68376420899451 L 11.519354472152848 47.74988833389417 L 10.850644584207018 45.73921805384731 L 10.458722318381092 43.68344903331699 L 10.402279417779404 41.62595322201439 L 10.71446600580218 39.616169405731924 L 11.399655612201073 37.702998591890406 L 12.433358658538737 35.9280756045006 L 13.765259628595977 34.319814681341036 L 15.324996168999498 32.88903924730238 L 17.029988536127227 31.62681461978543 L 18.79440129155189 30.504830354647765 L 20.538202045548626 29.47835955955325 L 22.195287304397645 28.49149514962745 L 23.719771400284316 27.484068318159935 L 25.0897650112466 26.39942933595976 L 26.308276479112322 25.192143797681233 L 27.401214677154176 23.834645397960163 L 28.412814877833895 22.321992092182864 L 29.399107918016004 20.674084543867075 L 30.420272568049135 18.934999488688476 L 31.53282585380103 17.16943131055543 L 32.782603513789574 15.456581993505004 L 34.19936449205511 13.882150863115527 L 35.79363511324892 12.529313310257322 L 37.5561181524412 11.46971271180906 L 39.45966578962254 10.755504886134624 L 41.46349393174775 10.413386775824662 L 43.51903823989285 10.441322450518179 L 45.57665335609842 10.808375110957002 L 47.59226038189604 11.457699058728636 L 49.533064952968886 12.312382227798025 L 51.38159650093744 13.28350068747828 L 53.13754197712541 14.279490418165949 L 54.81713624458011 15.215788936868265 L 56.45019015284166 16.023668096640876 L 58.07514593645371 16.6572733049901 L 59.73280922111623 17.09809237508027 L 61.45958482615599 17.356374618542816 L 63.28111706212429 17.46937244089184 L 65.207194593997 17.496642102811414 L 67.22862957562066 17.512974579933292 L 69.31657870633649 17.59979245022265 L 71.42446963070574 17.836013724147193 L 73.49236709051019 18.289429813562315 L 75.45330015175229 19.00956794392028 L 77.24081370230687 20.02281848271672 L 78.79683680964494 21.330328518111063 L 80.07889950482061 22.90882870597904 L 81.06578692086977 24.71421138322205 L 81.76088984862878 26.68735612991956 L 82.19277425098122 28.76144264456025 L 82.41281813180484 30.86983005088914 L 82.49011358013257 32.9535348572889 L 82.50416281452519 34.96741107476835 L 82.53616953588417 36.884315419961375 L 82.65990750500242 38.69680496076204 L 82.9332144516026 40.41623069238147 L 83.3911022367929 42.06941897793649 L 84.0412994020215 43.6934329372243 L 84.86276971739528 45.32914085044524 L 85.80741173721827 47.01445983408679 L 86.80477935092532 48.77817354054868 Z"></path><path stroke-width="0.12692307692307692" fill="none" stroke="#000" d="M 88.63993527920091 50 L 88.63993527920091 50 L 89.60124155856414 51.981713781382936 L 90.36866931654912 54.05037719840195 L 90.85541911012055 56.1746926760711 L 90.9943009983214 58.30995621102294 L 90.74468273173775 60.4038255682635 L 90.09651230088902 62.403304737583134 L 89.07098927371321 64.2620244061192 L 87.71784519556812 65.94684917410196 L 86.10958137514655 67.44291620055859 L 84.33335701671363 68.75639842292642 L 82.48148160069213 69.914565704707 L 80.64161250647224 70.9630549826208 L 78.88777565105019 71.96061413111505 L 77.27321252513998 72.97191000782553 L 75.8258262191538 74.0592482808945 L 74.54668040562225 75.27420859322136 L 73.41163763030455 76.65023298482564 L 72.37585107310488 78.19711260445571 L 71.38049177229856 79.89810744479121 L 70.36084057539219 81.71013039258278 L 69.25473028924118 83.56706610283086 L 68.01030473478593 85.38592015766181 L 66.59216846760349 87.07514981409437 L 64.98521931456307 88.54425616787208 L 63.195757670665984 89.71355210927923 L 61.24981380786269 90.52298185648623 L 59.188984091335975 90.93896187199567 L 57.06437581509507 90.95842949839101 L 54.92949049049012 90.6095998855197 L 52.83299889507099 89.94930712926994 L 50.81236336819201 89.05719796438017 L 48.88914413930078 88.02740961587074 L 47.06660228000089 86.9586546070835 L 45.329910609268865 85.9438199961665 L 43.64894349839179 85.06024479820016 L 41.983279793094155 84.36176057907674 L 40.28876231881261 83.87337571154723 L 38.52474930922424 83.589177777274 L 36.66109403984457 83.47365727711195 L 34.68391191235672 83.46626302072538 L 32.59933705910234 83.48863155812089 L 30.434716165345517 83.45363292562938 L 28.237005742436498 83.27517768903158 L 26.0684914214243 82.8776582685075 L 24.00029043004489 82.20395828715232 L 22.104388615853154 81.22114880565113 L 20.4451646680816 79.92327662568505 L 19.07144069848927 78.33100227919533 L 18.01005806746702 76.48822114228165 L 17.261813707893083 74.45615513135698 L 16.800323724974206 72.30569245874155 L 16.574039188885692 70.10894481323743 L 16.511264430339544 67.93106309538389 L 16.527665750110756 65.8232972104946 L 16.535452104295224 63.818110656984665 L 16.453196449484324 61.92688941874998 L 16.21517347280193 60.140451236528705 L 15.77912861616705 58.432207295397426 L 15.131561094484532 56.763497550942176 L 14.289881056449417 55.090354008174515 L 13.30115599796973 53.37077583534315 L 12.237552471411163 51.5715467351056 L 11.188960048027134 49.67369445441081 L 10.253610433510602 47.675875401195526 L 9.527737067322903 45.59524070340298 L 9.095431939456255 43.465669192457916 L 9.01983353703556 41.33359633118415 L 9.336625491206561 39.25198287102444 L 10.050557911845964 37.273213402559605 L 11.135354240257904 35.44186178855019 L 12.536976980142775 33.78828887615991 L 14.17984180578432 32.32394366835865 L 15.975236386656178 31.03903330240111 L 17.830956697095914 29.902934650344807 L 19.661047659012183 28.86737692505515 L 21.394540617653124 27.872072673146036 L 22.98221555578095 26.852157642673678 L 24.400663839440732 25.74655789949118 L 25.653257084047482 24.506266007989318 L 26.767999293299834 23.101495150222455 L 27.792607927824637 21.52679379422539 L 28.787490911125325 19.803431536986135 L 29.81752272634559 17.978682593788378 L 30.943646247910706 16.12199972365054 L 32.21532419190966 14.318444368700156 L 33.66473688085277 12.660073472866905 L 35.30338832944769 11.236239129570784 L 37.12147035399753 10.123902397280894 L 39.08998362049462 9.37907888384143 L 41.165268829431724 9.030417949382816 L 43.295303220655526 9.075682317133058 L 45.426903765443626 9.481567547203923 L 47.512874708160716 10.186919401108547 L 49.518155714463795 11.109016394311723 L 51.4241647867273 12.152230859508919 L 53.23076955964771 13.218106449741654 L 54.955631277365015 14.215725785861153 L 56.63100856838021 15.071208346617716 L 58.298440001066886 15.735279693035025 L 60.00200359696386 16.18807674793012 L 61.78104278029012 16.440673640729628 L 63.66332728766468 16.533190759924985 L 65.65957387429204 16.52974149784999 L 67.76008996533471 16.51083061284548 L 69.934043119391 16.564103085055443 L 72.1315320320027 16.774519751904712 L 74.2882810202791 17.21508577513223 L 76.33244326738242 17.939175309956468 L 78.19272054116925 18.97529162070876 L 79.80682364812253 20.32480172877683 L 81.12923226530083 21.962825188618602 L 82.13727447438893 23.84208128547799 L 82.83472926815148 25.89915290008886 L 83.25243861782064 28.06234966620506 L 83.44576608254057 30.260180196754106 L 83.48911467833338 32.42939272537516 L 83.46807265360316 34.52162016316947 L 83.4700488197526 36.5078585014682 L 83.5744532935515 38.380291834731274 L 83.84355068252859 40.15131721294014 L 84.31505125368008 41.849975711682 L 84.997317675028 43.516318859387525 L 85.86777187811693 45.19449223888106 L 86.8747224870193 46.92546990271653 L 87.94244075316661 48.740406032424225 Z"></path><path stroke-width="0.10769230769230767" fill="none" stroke="#000" d="M 89.71250308414285 50 L 89.71250308414285 50 L 90.73859150335636 52.03862871564116 L 91.56174348970696 54.17008390433936 L 92.08946109769076 56.361199880955624 L 92.25013112624393 58.564525580846976 L 92.00042843026512 60.72447008749052 L 91.3296020014058 62.78474408097325 L 90.26019037579479 64.69611669446272 L 88.84512404000824 66.42345502515823 L 87.16158597149504 67.95109234987665 L 85.30236865830615 69.28577189541605 L 83.36574397467314 70.4567115761093 L 81.44501901442379 71.51269494677172 L 79.61896886287286 72.51647042735932 L 77.94421540381946 73.53708793579453 L 76.45037535365589 74.64107604365776 L 75.13846122061611 75.88352893766171 L 73.98262719626354 77.30020908666884 L 72.9349554188253 78.90167254018338 L 71.9326241253123 80.67019971422809 L 70.90652992681648 82.55999120375287 L 69.79028323319635 84.50070374933445 L 68.52847585692244 86.40400187398689 L 67.08323389317785 88.17243400917951 L 65.43830166556398 89.7096526719559 L 63.600224086231925 90.9308219676625 L 61.59656483354503 91.77201457493199 L 59.47147029364408 92.19750054729496 L 57.279218254264435 92.20406097784567 L 55.07663553251464 91.8217943898568 L 52.91540027892932 91.11128364728425 L 50.83524702178401 90.15740930266371 L 48.858966041009744 89.06048235351555 L 46.98984978275336 87.92567964315788 L 45.211918033058666 86.85196191066623 L 43.49289089326837 85.92171446637873 L 41.789519816888415 85.19226653916422 L 40.05457717364795 84.69022745265875 L 38.24458304963146 84.40925173942459 L 36.327242446348535 84.31144966094655 L 34.287590509460856 84.33224108471657 L 32.1319955957824 84.38805855869626 L 29.889431702559285 84.38598567922395 L 27.609771180763445 84.2342066372251 L 25.35922406652959 83.85206611407527 L 23.213415396107223 83.1786034347048 L 21.24890107594157 82.17862213065374 L 19.534137352633795 80.84566113798374 L 18.121011100986713 79.20160937183623 L 17.0379952366715 77.29310585512694 L 16.285819209273605 75.18524478380799 L 15.836258473782657 72.95341392521303 L 15.634282587311823 70.67429920187301 L 15.603402436671594 68.4171647774405 L 15.653670968373746 66.23645869151358 L 15.69146537936912 64.16660787841438 L 15.629951907061326 62.21957741232538 L 15.399035309669678 60.38541354938386 L 14.953636878830636 58.63561291215641 L 14.279323605992936 56.92880768088098 L 13.394606744464589 55.217972266451156 L 12.349606218208038 53.45817534589911 L 11.221193865544848 51.61384418014108 L 10.105134367768734 49.66458214177095 L 9.106090002604986 47.608775458529365 L 8.326603016065206 45.46451644942347 L 7.856288105541992 43.26772123425097 L 7.7624431911374145 41.06768593483001 L 8.08312220183224 38.9206607663499 L 8.823428495152015 36.88228393277518 L 9.955415503929522 34.999873681654705 L 11.421566225969606 33.305607141653454 L 13.14141417049148 31.81151417884474 L 15.020513395542359 30.50699519493159 L 16.960705747647005 29.3592600984785 L 18.870499247268107 28.31671975601001 L 20.67437758594302 27.314986173811494 L 22.320004974575237 26.28480001300752 L 23.782554705436603 25.160946069585147 L 25.06574118567461 23.89107184912788 L 26.19953109917619 22.44331057672728 L 27.234901992935473 20.811731168471155 L 28.236358981349078 19.01888063921564 L 29.273171874001548 17.115020953698036 L 30.41042661099163 15.174052637764873 L 31.70098194890923 13.286514883159654 L 33.17928682230091 11.550408486958496 L 34.85776374576098 10.060860396891293 L 36.726130863707915 8.899803332067243 L 38.753661492894715 8.126861275761762 L 40.894011643252206 7.772508304885221 L 43.09192846978937 7.834317765232477 L 45.29092478845698 8.276770028970958 L 47.44089429201752 9.034680662330999 L 49.50466191442846 10.019894510530193 L 51.46261072783114 11.130514049173541 L 53.31478189124109 12.261636921189627 L 55.08017520666571 13.31640259808512 L 56.79334310566744 14.216112297112993 L 58.498724491199326 14.908293893857255 L 60.24346233950397 15.37182184538382 L 62.069652797212605 15.618542872758866 L 64.00705773132695 15.691261049404375 L 66.0672661407441 15.65835344750979 L 68.24011756085247 15.605670476372048 L 70.49292326398788 15.62667866038504 L 72.77267249385534 15.811992633549927 L 75.01103401421787 16.239496152619836 L 77.1316045403931 16.9661638346102 L 79.05855987879282 18.022477829153473 L 80.725669131451 19.410013819126227 L 82.08456240642809 21.102387708468374 L 83.11120819606407 23.049354473961582 L 83.80975151312595 25.18348194531309 L 84.21316574875198 27.428528607040207 L 84.38054455728377 29.70847034499453 L 84.3912604178828 31.95606732856035 L 84.3365957636106 34.11994389298505 L 84.3097647600318 36.16935985314434 L 84.3954507428919 38.096154646186264 L 84.66006016052162 39.91370789951983 L 85.14382834829418 41.65313633059606 L 85.85571220198693 43.35729077451176 L 86.77169258292079 45.073386362075226 L 87.83672133861788 46.84526063676658 L 88.97012960957399 48.70628933728337 Z"></path><path stroke-width="0.08846153846153845" fill="none" stroke="#000" d="M 90.69168077339225 50 L 90.69168077339225 50 L 91.77870760808693 52.09067790243079 L 92.65435539002021 54.27971076107395 L 93.22076871237229 56.532180303991524 L 93.40217559278472 58.79805655556703 L 93.15271864835904 61.018698085582834 L 92.46098892605374 63.134723069101206 L 91.35078274307484 65.09421398476451 L 89.87803676231042 66.86016351969596 L 88.12433388544187 68.41615260662046 L 86.18776097469544 69.76946392234807 L 84.17219351235289 70.95114999191455 L 82.17624808916827 72.01295567213405 L 80.28316252458688 73.02139337087104 L 78.55273449434888 74.04963649503742 L 77.01618942639516 75.16818643080822 L 75.67448931377001 76.43544413003517 L 74.50017976775649 77.88935610961477 L 73.44245315065885 79.54119997734159 L 72.43473125295242 81.3723375794773 L 71.40378613601182 83.33442186508631 L 70.27925570003495 85.35313693693442 L 69.00238938478134 87.33512805454845 L 67.53298006960125 89.17739046811198 L 65.85368437795432 90.77807998943396 L 63.97127373289167 92.04752173174717 L 61.91474994841823 92.91814995612373 L 59.73065321290788 93.35221792890604 L 57.47623837692181 93.34636073862336 L 55.211454820017096 92.93244818519076 L 52.990804334162185 92.17458789584266 L 50.85615391720182 91.16258110770394 L 48.83144658661404 90.00254297698103 L 46.920000641538856 88.80572746863623 L 45.10474825941219 87.67680501979905 L 43.35138067985497 86.70290460733608 L 41.61398771276661 85.94464306972836 L 39.842451611624035 85.43013405327451 L 37.99062078156096 85.15262406311567 L 36.02417714665465 85.07198459573365 L 33.927136882627465 85.11984662820471 L 31.70608519292501 85.20774896971724 L 29.391522645183922 85.23733375965807 L 27.0360595954915 85.11140003792387 L 24.70959233406427 84.74454516654478 L 22.49198071115485 84.07219235878873 L 20.46407407624358 83.057011215117 L 18.69815923041082 81.6920608666022 L 17.249001591662534 80.00038254310827 L 16.146605381624155 78.03119195901161 L 15.391634216134435 75.85322091153915 L 14.954130894310971 73.54608435772175 L 14.775789880572553 71.19076550660962 L 14.775613767969517 68.86039234622301 L 14.858376563789548 66.61241632983158 L 14.92497136286159 64.48310697384598 L 14.883480047119221 62.48497042702294 L 14.659697878943767 60.60732426890705 L 14.205890019308448 58.81986177166828 L 13.506746112527857 57.07866600975895 L 12.58181178266203 55.3338333784843 L 11.484075951340486 53.53767399463458 L 10.294833494148918 51.652396199739286 L 9.115372067987273 49.65626067118852 L 8.056399300504921 47.547395997187195 L 7.226388497441604 45.34477567443346 L 6.720146582280194 43.086227457169905 L 6.608882261686098 40.82373317587198 L 6.932878456844236 38.61663190443253 L 7.69757145748293 36.52361704010562 L 8.873445732303558 34.59458334211796 L 10.399714371633344 32.863411991916635 L 12.19132250140408 31.342675549714286 L 14.148435514856402 30.0210126957934 L 16.167299448539154 28.86359294133432 L 18.15121890843519 27.815704423808207 L 20.020404322389467 26.809101172763445 L 21.71959290575541 25.770389072052243 L 23.222627113072768 24.6304568664004 L 24.53354604980855 23.333804650289487 L 25.68416409495326 21.846607691017233 L 26.72852631389151 20.16248162669029 L 27.734992424256085 18.305172067405792 L 28.776967229460244 16.327747607326685 L 29.92343461659906 14.308288119786056 L 31.23044910455418 12.34248058962639 L 32.73459557875314 10.533911951811149 L 34.449163339259584 8.983136578351761 L 36.363428601858786 7.77675969340838 L 38.445044231376826 6.9777963248829735 L 40.64514584080044 6.618434941894101 L 42.90544750776108 6.696069999074929 L 45.16635937521028 7.173098681656661 L 47.375042521025456 7.980547251887458 L 49.49233743865442 9.02515201868232 L 51.49765789741001 10.199120999990846 L 53.39121182942044 11.39149196090586 L 55.193261056358224 12.499817418792361 L 56.94051804391978 13.44086933040527 L 58.68015190728319 14.159170002218623 L 60.46219056108848 14.63240781002775 L 62.33132151648714 14.873156737429845 L 64.31918291727924 14.926744922595468 L 66.43818716821168 14.86555903478284 L 68.67773727605415 14.780476414959473 L 71.00340266942595 14.770438073605817 L 73.35925255627576 14.93137559132736 L 75.67314613697638 15.34576105733835 L 77.86439955047858 16.073955993752875 L 79.8529365976337 17.148305150097997 L 81.5688235220275 18.57058275431413 L 82.96101417236858 20.312993637776547 L 84.00420138932402 22.322508661927003 L 84.70287665196665 24.527923855081927 L 85.09201933708243 26.848722026927852 L 85.23423185985882 29.20462081499536 L 85.21356044380647 31.524634280652208 L 85.12664242354658 33.75456156524017 L 85.07215121591243 35.86203356286313 L 85.13972897990043 37.83856903988658 L 85.39967720437059 39.69847476050607 L 85.89460615794302 41.47482223342239 L 86.63403230264102 43.21309745647438 L 87.59258249586378 44.963404820398296 L 88.71205343782503 46.772277446585875 L 89.90713244128276 48.67518319094714 Z"></path><path stroke-width="0.0692307692307692" fill="none" stroke="#000" d="M 91.59243693026102 50 L 91.59243693026102 50 L 92.73703628757404 52.1386343067376 L 93.66234398416566 54.380846966133404 L 94.26544546567331 56.6900677529021 L 94.46664133911457 59.01383444480332 L 94.21768257018662 61.29062801941338 L 93.50653825906161 63.4581493785557 L 92.35819160632714 65.46194692579633 L 90.83141698417302 67.26324621237856 L 89.01195094680176 68.84492052443805 L 87.0028784796246 70.21476464480614 L 84.91336505613783 71.40556612934992 L 82.84703940531875 72.47186870222858 L 80.89135177966251 73.48374151808537 L 79.10909693583565 74.5182541148278 L 77.5330175070553 75.6496616411509 L 76.16402580903113 76.93948978063929 L 74.97314642259589 78.42774952508469 L 73.90684077298125 80.12640185573984 L 72.89498123863366 82.01594314617387 L 71.86044278510875 84.04562245790488 L 70.7291096979182 86.13737429870145 L 69.43907274503711 88.19310590377077 L 67.94791898286631 90.1045702037226 L 66.23727525534873 91.76473388695685 L 64.31412412357182 93.07935387021018 L 62.208822594185825 93.9774297533236 L 59.97016841459549 94.41931126721073 L 57.65822471372002 94.40149635718603 L 55.33588650868747 93.95752797786545 L 53.06031893965125 93.15484254030598 L 50.875399677416915 92.08788805300469 L 48.806157264077314 90.86826053857985 L 46.855931429826015 89.61295243185869 L 45.006624372020276 88.4320255414317 L 43.22200855891691 87.41708786629499 L 41.453657527271346 86.63186019910269 L 39.648721542662685 86.10587607792542 L 37.7585233194863 85.83199596751743 L 35.746831593137614 85.76797645844653 L 33.59669755382777 85.84186973402144 L 31.314908427059155 85.96059238899808 L 28.933403605756094 86.02064701546246 L 26.507376269207906 85.91974614210028 L 24.110201015178063 85.5680027804577 L 21.82573407522473 84.89742384126818 L 19.738876629860684 83.8686620900595 L 17.92553031010131 82.47432165918585 L 16.44317650144034 80.73852984072917 L 15.323263333425622 78.7129333105407 L 14.566390298440616 76.46969651871702 L 14.140962246197404 74.09242371451712 L 13.985579324469427 71.66615350078904 L 14.014985450750345 69.26765986815802 L 14.12896838218662 66.95722773016908 L 14.223241364389821 64.77286384731185 L 14.20108403614892 62.727582565922646 L 13.984410091389094 60.810010610209076 L 13.52297564146626 58.98813555798961 L 12.800641087100395 57.21563054732049 L 11.837928143515747 55.43987141969412 L 10.690534364683515 53.61056050856661 L 9.44393084896857 51.68780792120977 L 8.204620270267547 49.648603484918354 L 7.089018687876475 47.490829524037345 L 6.21120006669635 45.234288630860895 L 5.670874475019183 42.91861069989668 L 5.542943879424854 40.59831065800327 L 5.869796529516918 38.33564138403321 L 6.657183784603596 36.192178321584215 L 7.874109411292672 34.22024630657836 L 9.45669977921959 32.45533280007795 L 11.31556842764634 30.910520050666104 L 13.345793613004602 29.57372475739488 L 15.438338766407917 28.40818709266868 L 17.491596548400224 27.356243907513704 L 19.421743887212187 26.346003746988814 L 21.170755870090122 25.300165719442713 L 22.711220155480174 24.14593730862846 L 24.04748444952722 22.824844368247653 L 25.213109969983634 21.301211199988852 L 26.265040574250285 19.568223417741226 L 27.275278095027893 17.65075654504554 L 28.321134308677127 15.604527635730328 L 29.47527632319529 13.511561369994446 L 30.796778901414356 11.472404145953945 L 32.32424649090909 9.59591636038337 L 34.07178957746605 7.987776110996549 L 36.02826983452434 6.738999631817478 L 38.159812785700176 5.915803047178635 L 40.41517695176033 5.55199284119891 L 42.73321524475718 5.64479384470426 L 45.051410955981325 6.154635583309883 L 47.314347772881916 7.0089657607189935 L 49.480995298582314 8.109696555499326 L 51.529854991893814 9.343469877048726 L 53.461295245961345 10.59360132858015 L 55.29677255331385 11.752367985196592 L 57.07504201130981 12.73226526499073 L 58.845853752043965 13.474977869197716 L 60.66196278354215 13.957074814191841 L 62.57050646038118 14.19181759436239 L 64.60489748706411 14.226918679486062 L 66.77832857850716 14.138551964139303 L 69.07979326895806 14.02234279763205 L 71.47321887314081 13.982402948854855 L 73.8999198763668 14.11968612769244 L 76.28416072011473 14.520998667541853 L 78.54121793538467 15.249901979275954 L 80.58700260508755 16.340501455553884 L 82.34808670691139 17.794760754966312 L 83.77089911669992 19.5835543259489 L 84.8289301573692 21.651226220310935 L 85.52700040717355 23.923013107883794 L 85.90198527138986 26.314362738174832 L 86.01980210865577 28.74097423217309 L 85.96891202791642 31.128326818775708 L 85.8510103215269 33.4195544800521 L 85.76992676703134 35.580752632542044 L 85.81998720649801 37.60313997717105 L 86.07517216872442 39.501901543629884 L 86.58033542001888 41.31195754469402 L 87.34552256880698 43.08128518265086 L 88.34408253477088 44.862720025097346 L 89.51483315670126 46.70534350808526 L 90.76807701244172 48.6466019882959 Z"></path><path stroke-width="0.04999999999999999" fill="none" stroke="#000" d="M 92.42640687119285 50 L 92.42640687119285 50 L 93.62560405678772 52.183099755916494 L 94.59805878849853 54.474731604191646 L 95.23606075850745 56.83676190683531 L 95.45618747071816 59.21442537627815 L 95.20792241169329 61.54347776301331 L 94.47864458444529 63.758857103471684 L 93.29446156288176 65.8037121387924 L 91.71683679240061 67.63759570303363 L 89.83544316686488 69.24271261283539 L 87.75810237108871 70.6273453371025 L 85.59899312806198 71.82592827462331 L 83.4664939304502 72.89566034396482 L 81.45204664789426 73.90998422348682 L 79.62128551916396 74.94966460717109 L 78.00838978623275 76.09251677358816 L 76.61422303017028 77.4030301978011 L 75.40836631032408 78.92317456073329 L 74.3346905731473 80.66556029729635 L 73.31970180376817 82.60986498977039 L 72.28257892773752 84.70306054729096 L 71.14564612421185 86.86352862782485 L 69.84399793434505 88.98868657992676 L 68.33312833169737 90.96531931831763 L 66.59368579303543 92.6814758296106 L 64.63285072772945 94.03858379233628 L 62.48226239547945 94.96238793093525 L 60.192856110999756 95.4114343378179 L 57.82735456435586 95.38209156398963 L 55.45144250949389 94.90948903067047 L 53.124807220103214 94.06421886463012 L 50.893229814528695 92.94513398773518 L 48.78276532522248 91.669025851176 L 46.7967713155405 90.35832637671697 L 44.91617118668573 89.12820772119845 L 43.102916135040495 88.07452329198532 L 41.30619206934676 87.26393573973635 L 39.47055717320029 86.7273240151849 L 37.54493765634036 86.45718203128271 L 35.491286374584305 86.4092609153735 L 33.291737480750925 86.50821965039748 L 30.953267415709508 86.6565924567271 L 28.50917720554318 86.74600905927534 L 26.017106115877 86.66935928239897 L 23.553723723327735 86.33250411456996 L 21.206672388486112 85.6642107426089 L 19.06469205471745 84.62321866360654 L 17.20710896034184 83.20169910998945 L 15.693977148819677 81.42480715354377 L 14.558111709183443 79.34649199198648 L 13.800049721367287 77.04217001706954 L 13.386641888077897 74.59922497921013 L 13.253553818510305 72.10653756586936 L 13.311491298378293 69.64433572106317 L 13.455514391175228 67.27558803864989 L 13.576425245599971 65.03994579720148 L 13.572950448597297 62.950902794559326 L 13.363323464735984 60.99642857645691 L 12.894921303936762 59.14289153446437 L 12.1508176729538 57.34167803347365 L 11.152458990876717 55.53758267778687 L 9.958109913647675 53.67783343521872 L 8.657199893847938 51.72054903162085 L 7.361174756487209 49.64151217922571 L 6.191861543822476 47.43836928776856 L 5.268643170194068 45.13170636953921 L 4.695877603105949 42.762859095626716 L 4.55196798140922 40.38874105642461 L 4.881298648722456 38.074364687667604 L 5.689920192830186 35.8840349115008 L 6.945433516225627 33.87237765192482 L 8.581039897103452 32.07640061822818 L 10.503247890609856 30.509666891555135 L 12.602314696701242 29.159406552789743 L 14.76419751649177 27.987028756472842 L 16.88263423761653 26.932070691642526 L 18.86997979967861 25.919183276556318 L 20.665592536538032 24.86736038583338 L 22.24087225186225 23.700318110695175 L 23.60046083551023 22.356761177685463 L 24.77957708533076 20.799257599539356 L 25.83791446134774 19.020583701694466 L 26.8509290761244 17.046684478518877 L 27.8996381210444 14.935785982924699 L 29.060202095804765 12.773650803619695 L 30.394560785025813 10.665430307875567 L 31.943235172297975 8.72498244648338 L 33.721116393378 7.062841047297603 L 35.71667547437577 5.774202604573155 L 37.89459251316834 4.928316741552187 L 40.20137516366302 4.5605229559349425 L 42.57316664994377 4.667884708556734 L 44.944678337625625 5.208965917608033 L 47.25805326295003 6.107821830195142 L 49.47049008341357 7.261791613662986 L 51.559627958047464 8.552240968629853 L 53.525989862208824 9.85706149057662 L 55.39216719380251 11.06352981650614 L 57.198853727019284 12.08008791102295 L 58.99824858931872 12.845731110195565 L 60.84569422688425 13.335967912854528 L 62.7906525979262 13.564712149251356 L 64.86822087468914 13.58193716096143 L 67.09233374834969 13.467407634797425 L 69.45159888714329 13.321250553684848 L 71.90838926606898 13.252480157415299 L 74.40141033041925 13.36681185077235 L 76.85152114749809 13.755161722110543 L 79.17017113279891 14.484125784648455 L 81.26946966892791 15.58947987169504 L 83.07267839538372 17.07336882555652 L 84.52383455955786 18.905407738420507 L 85.59529032361328 21.027452510109217 L 86.29217983303883 23.361367778142505 L 86.65317725691204 25.81877842024445 L 86.74734360759524 28.311576440745448 L 86.66732617955658 30.761892504480468 L 86.5196159122712 33.110336456006294 L 86.4129313967623 35.32155045762853 L 86.44603912469995 37.38647105564879 L 86.69640785788553 39.32111811177482 L 87.21101872745456 41.1621665904029 L 88.00041955342888 42.95995750640821 L 89.03674841079138 44.769917738565866 L 90.25599986554435 46.643546721567205 L 91.56432047186732 48.620168700444474 Z"></path></svg>